<svg xmlns="http://www.w3.org/2000/svg" viewBox="0 0 1272.23 1502.23"><defs><style>.cls-1{fill:#783293;}.cls-2{fill:#fff;}.cls-3{fill:#debddb;}.cls-4{fill:#903e97;}.cls-5{fill:#9e9d9e;}</style></defs><g id="Layer_2"><g id="uni_purple"><path class="cls-1" d="M1185.9,428.75A363.05,363.05,0,0,1,1249.19,791h0c-2,5.38-4.16,10.79-6.39,16.12A515,515,0,0,1,1085,1294.52a637.23,637.23,0,0,1-217.14,130.07h0a528.16,528.16,0,0,1-275.51,77.63,522,522,0,0,1-183.9-33.61,421.76,421.76,0,0,1-242.58-234.71l-9.48-23,22,11.56a409.77,409.77,0,0,0,47,21.08A504,504,0,0,0,480,1269.53,510.89,510.89,0,0,0,538.23,1257q14.06-3.88,27.86-8.56,7.27-2.45,14.46-5.12,17.15-6.39,33.79-14a508.15,508.15,0,0,0,203.87-167.54q7.62-10.66,14.69-21.81,10.89-17.13,20.48-35.33l-1.19.52a481.63,481.63,0,0,1-49.53,18.62l-27,8.51,18.62-21.39a463,463,0,0,0,94.15-169.81l10.8-47.19c24.58-126.86-19.23-259.18-115-346.44-8.53-7.75-17.46-15.15-26.55-22-9.39-7.08-19.19-13.75-29.13-19.85q-9.93-6.09-20.26-11.57l0,.08.06.09c.5.79,3,6.82,6.93,16.34,34.06,53,58.61,115.08,72.43,182.06v0h0c.27,1.3.53,2.61.8,3.92l.69,3.5c.05.27.11.55.15.83.23,1.18.45,2.36.67,3.54q.75,3.94,1.42,7.91c.19,1.09.38,2.17.56,3.25.09.53.18,1.07.26,1.61l.51,3.1c.21,1.32.42,2.66.62,4,.14.9.27,1.81.41,2.71q.45,3,.85,6c.29,2.05.56,4.09.83,6.15.07.53.14,1.06.2,1.59.33,2.57.63,5.14.93,7.73q.24,2,.45,4l.36,3.44c.12,1.19.24,2.38.35,3.58s.25,2.6.36,3.9c.09.87.16,1.73.23,2.6.12,1.26.22,2.52.32,3.78q.5,6.2.88,12.43c.11,1.83.22,3.66.31,5.5s.19,3.73.27,5.6c0,.16,0,.32,0,.48.07,1.59.14,3.18.19,4.78q.21,5.76.32,11.55c0,.69,0,1.39,0,2.09,0,1.52,0,3.05.05,4.58q0,2.92,0,5.85,0,5.71-.1,11.37c0,.84,0,1.67,0,2.5,0,1.32-.06,2.63-.1,3.94,0,1.6-.09,3.2-.15,4.79s-.13,3.44-.2,5.15l0,.61c-.07,1.67-.16,3.33-.24,5l0,.46c-.09,1.71-.19,3.41-.3,5.11,0,.14,0,.29,0,.43l-.3,4.42c0,.61-.08,1.22-.13,1.83l-.24,3.09c-.07.9-.14,1.8-.23,2.7-.09,1.12-.19,2.23-.29,3.34,0,.42-.07.83-.11,1.25-.15,1.62-.31,3.23-.47,4.83-.36,3.56-.76,7.1-1.18,10.61s-.89,7-1.38,10.45c-.24,1.73-.5,3.45-.76,5.17q-.78,5.16-1.67,10.24-1.32,7.62-2.87,15.06c-.34,1.66-.7,3.31-1.06,5q-1.08,4.93-2.26,9.78-.58,2.43-1.2,4.83-2.46,9.61-5.29,18.92-2.13,7-4.47,13.77c-1,2.82-2,5.62-3,8.4h0l-.75,2q-.81,2.16-1.65,4.29l0,.08c-.58,1.49-1.17,3-1.77,4.43s-1.17,2.86-1.76,4.28c-.7,1.67-1.41,3.32-2.14,5-1.16,2.66-2.36,5.3-3.57,7.91q-3.56,7.58-7.39,14.86c-.36.71-.74,1.41-1.11,2.1L751.2,943q-.84,1.56-1.71,3.09c-.57,1-1.15,2.05-1.74,3.07s-1.17,2-1.76,3-1.26,2.13-1.9,3.19c-1.11,1.84-2.24,3.65-3.37,5.45l-.34.54c-.58.9-1.15,1.8-1.73,2.69-.76,1.18-1.54,2.35-2.32,3.52l-1.51,2.24q-2,2.91-4,5.76c-.64.9-1.29,1.79-1.94,2.68l-2,2.76-2.07,2.73q-1,1.35-2.1,2.7-2,2.58-4.11,5.13l-.16.19q-2.16,2.63-4.38,5.21c-.8.94-1.62,1.87-2.44,2.8-.69.76-1.37,1.53-2,2.29q-2.28,2.52-4.6,5c-.77.82-1.55,1.63-2.34,2.45-1.57,1.62-3.15,3.22-4.76,4.81l-.27.27-2.35,2.29q-1.79,1.71-3.58,3.38-3.17,2.94-6.41,5.78c-.81.71-1.63,1.42-2.45,2.11-.32.29-.64.56-1,.84l-.11.09c-.61.52-1.21,1-1.83,1.55s-1.22,1-1.84,1.53c-1.23,1-2.48,2-3.73,3q-7.32,5.82-15,11.19-2.57,1.79-5.19,3.53t-5.28,3.43c-52.52,33.37-117.71,51-188.5,51s-136-17.63-188.5-51q-2.67-1.69-5.28-3.43t-5.19-3.53a292.09,292.09,0,0,1-40.51-34q-2.21-2.21-4.34-4.46c-1.43-1.5-2.84-3-4.25-4.55h0q-3.56-3.89-7-7.92c-1.43-1.68-2.84-3.37-4.24-5.09-1.8-2.23-3.59-4.49-5.34-6.78s-3.48-4.6-5.17-6.95q-1.84-2.57-3.65-5.17L185,968.79q-1.77-2.64-3.51-5.32-2.61-4-5.09-8.14-1.67-2.76-3.28-5.55c-1.05-1.81-2.07-3.63-3.08-5.47l-.1-.17-1.56-2.85q-2.32-4.31-4.53-8.71t-4.32-8.91q-6.31-13.51-11.68-28l-.06-.15q-1.51-4.08-2.94-8.24h0A421.38,421.38,0,0,1,131.67,840q-1.35-6.15-2.55-12.44t-2.24-12.67c-.28-1.71-.55-3.42-.81-5.14s-.52-3.44-.76-5.17q-.74-5.19-1.38-10.46c-.42-3.51-.82-7-1.18-10.6-.16-1.6-.32-3.21-.47-4.82,0-.42-.08-.85-.11-1.27-.1-1.11-.2-2.22-.29-3.34-.09-.9-.16-1.8-.23-2.7l-.24-3.09c0-.61-.09-1.22-.13-1.83l-.3-4.42c0-.14,0-.29,0-.43-.11-1.7-.21-3.4-.3-5.11l0-.46c-.08-1.66-.17-3.33-.24-5l0-.61c-.07-1.71-.14-3.43-.2-5.15s-.11-3.19-.15-4.79c0-1.31-.07-2.62-.1-3.94,0-.83,0-1.66,0-2.5q-.1-5.66-.1-11.37,0-3,0-6c0-1.8,0-3.6.07-5.39,0-.23,0-.45,0-.67,0-1.46.06-2.92.1-4.38q.07-3.46.2-6.92.19-5.8.51-11.59.45-8.68,1.14-17.29.23-2.88.48-5.74c.16-1.9.34-3.81.53-5.71.14-1.51.29-3,.45-4.52l.06-.57c.13-1.22.26-2.43.4-3.64l.09-.87a279.72,279.72,0,0,1-18.94-24.66,164,164,0,0,1-41.31-24.41c-23.37-19.18-41.4-46.09-52.14-77.81A225.69,225.69,0,0,1,1,430c4-43,23.48-84.36,54.79-116.42A220.24,220.24,0,0,1,115,270.62c-10.37-10.76-23.14-26.83-21.12-42a.06.06,0,0,1,0,0,24.86,24.86,0,0,1,7.27-15.7c13.49-13.73,38.61-17.48,69.12-10.39a.27.27,0,0,1,.12,0,178.77,178.77,0,0,1,43.15,15q3.24-5.07,6.72-9.88L134,18A12.74,12.74,0,0,1,155.14,4.32L285.46,151.47C318.07,134.86,355.38,128,394,131.57A117.85,117.85,0,0,1,496,95.84a1.52,1.52,0,0,1-.71-.69,133.32,133.32,0,0,0-50.1-16.62l-24.56-3L442.3,63.58a149.52,149.52,0,0,1,196.31,48c.89,1.34,1.77,2.72,2.62,4.11.74,1.2,1.45,2.42,2.14,3.64A288.91,288.91,0,0,1,755.8,72.8a362.6,362.6,0,0,1,422.86,290.86A453.59,453.59,0,0,1,1185.9,428.75Zm46.43,356a345,345,0,0,0-46.22-326.76l-.12,3.64q-.18,6.21-.58,12.38-.14,2.34-.3,4.68c0,.47-.07.93-.11,1.39q-.13,1.94-.3,3.87l-.12,1.39c-.12,1.46-.26,2.9-.4,4.35s-.3,3.05-.46,4.57c-.07.67-.14,1.34-.22,2-.14,1.23-.28,2.46-.43,3.69,0,.39-.09.78-.14,1.17-.12,1-.25,2-.38,3s-.25,2-.39,3-.29,2.11-.45,3.16c0,.44-.12.87-.19,1.3-.15,1.12-.32,2.23-.5,3.34q-.16,1.14-.36,2.28c-.15,1-.31,2-.48,3-.39,2.38-.81,4.75-1.24,7.12-.31,1.65-.62,3.31-.94,5s-.62,3.1-.94,4.65l-.18.9q-1.07,5.12-2.26,10.21c-.35,1.51-.71,3-1.09,4.55-.23,1-.47,1.94-.73,2.91s-.44,1.8-.68,2.7q-.11.45-.24.9c-.35,1.38-.72,2.76-1.09,4.14s-.7,2.58-1.07,3.87-.76,2.72-1.16,4.07l-.39,1.34q-.56,1.9-1.14,3.78c-.34,1.17-.7,2.34-1.07,3.5s-.73,2.34-1.11,3.5c-.25.79-.51,1.59-.77,2.38-.17.54-.35,1.08-.53,1.61-.42,1.26-.84,2.53-1.28,3.79,0,.13-.08.26-.13.39-.48,1.4-1,2.8-1.46,4.19q-1.12,3.19-2.31,6.37c-.42,1.16-.86,2.32-1.3,3.48q-1.8,4.74-3.71,9.47c-.72,1.78-1.46,3.57-2.21,5.35-.33.79-.66,1.58-1,2.37-.46,1.1-.93,2.19-1.41,3.28q-1.24,2.86-2.54,5.72c-.79,1.75-1.59,3.48-2.4,5.22s-1.66,3.52-2.51,5.27-1.59,3.26-2.4,4.88c-.59,1.19-1.18,2.37-1.78,3.54-.31.61-.62,1.22-.94,1.83-.63,1.22-1.26,2.43-1.9,3.63-.19.39-.4.78-.61,1.17l-.63,1.19-1,1.91s0,.06,0,.09c-.35,1.66-.7,3.32-1.07,5-.22,1-.45,2.06-.69,3.08-.06.29-.12.58-.19.86a.19.19,0,0,1,0,.07l-18.6,62.16s0,0,0,0c-.11.29-.21.58-.33.87a1.17,1.17,0,0,1-.09.24c-.48,1.29-1,2.58-1.47,3.86s-1.08,2.79-1.64,4.18c-.25.63-.49,1.26-.75,1.88-.44,1.11-.88,2.21-1.34,3.31-.34.84-.69,1.68-1,2.51a2.44,2.44,0,0,1-.1.24c-.53,1.29-1.07,2.58-1.62,3.86.35,1.21.69,2.43,1,3.64.06.2.11.4.17.59s.14.49.2.74c.42,1.54.84,3.08,1.25,4.62q.71,2.67,1.4,5.36c.48,1.84.94,3.68,1.4,5.53s.91,3.69,1.35,5.53.88,3.7,1.3,5.55c.36,1.53.7,3.07,1,4.6.15.61.28,1.23.41,1.84.32,1.42.62,2.84.92,4.26.06.25.11.5.16.74s0,.22.07.33l.69,3.31.12.58c.11.52.21,1,.32,1.56,0,.18.07.36.11.54.29,1.46.58,2.91.86,4.37,0,.18.07.36.11.54.33,1.72.65,3.45,1,5.17s.68,3.72,1,5.59.65,3.73,1,5.59c.25,1.51.5,3,.74,4.52,0,.17.05.34.08.51.13.79.25,1.57.37,2.36.17,1.05.33,2.1.48,3.16,0,.22.07.44.1.66.22,1.44.43,2.9.64,4.34a1,1,0,0,0,0,.17q.48,3.36.92,6.72.74,5.63,1.38,11.26c.11.93.21,1.87.31,2.8l.09.8c.11,1,.21,2,.31,3,0,.24,0,.49.08.73.13,1.22.25,2.44.36,3.65l0,.32c.14,1.43.27,2.85.4,4.27l.12,1.33v0c.07.75.13,1.49.19,2.23l.18,2.24c.09,1.11.18,2.22.26,3.33s.18,2.33.26,3.49q.15,2.07.27,4.14c.07,1.15.15,2.31.21,3.46.09,1.44.17,2.88.24,4.31.1,1.86.18,3.71.26,5.56,0,1.18.1,2.36.14,3.53l.06,1.65q.11,2.83.18,5.67l0,1.15c.08,3.25.13,6.49.16,9.74,0,.33,0,.66,0,1,0,1.69,0,3.37,0,5.06v.14c0,1.47,0,2.95,0,4.43,0,1.1,0,2.21,0,3.32,0,.92,0,1.84,0,2.75,0,1.23,0,2.47-.07,3.71v0c.44-.42.87-.84,1.31-1.28s1.12-1.08,1.68-1.63c.84-.82,1.68-1.65,2.51-2.49,1.15-1.14,2.3-2.3,3.43-3.46.83-.83,1.64-1.67,2.45-2.51q7.77-8.06,15.07-16.46,1.41-1.62,2.8-3.26l.69-.81,2.09-2.49c.82-1,1.62-2,2.41-2.93.38-.44.74-.89,1.1-1.34.66-.8,1.31-1.62,2-2.43.8-1,1.59-2,2.37-3q1.66-2.12,3.3-4.25,3.76-4.9,7.36-9.92,1.35-1.86,2.67-3.75l.4-.57q1.33-1.87,2.62-3.78c.42-.6.83-1.2,1.23-1.81q1.34-1.95,2.63-3.92t2.71-4.15c.51-.77,1-1.55,1.49-2.33.37-.57.73-1.13,1.07-1.7.67-1.05,1.33-2.1,2-3.15.31-.49.61-1,.91-1.48.67-1.09,1.33-2.17,2-3.27q5.79-9.67,11.11-19.71c.51-1,1-1.9,1.49-2.85.36-.67.71-1.34,1-2,.57-1.09,1.13-2.19,1.67-3.29.33-.63.65-1.26.95-1.89.53-1,1-2.09,1.55-3.14q.43-.87.84-1.74c.6-1.23,1.2-2.47,1.78-3.72s1.3-2.77,1.93-4.16,1.21-2.64,1.79-4c1.08-2.38,2.12-4.79,3.15-7.2C1227.65,796.8,1230.07,790.73,1232.33,784.7Zm-38.79,328.45a499.31,499.31,0,0,0,36.18-277.48c-.39.77-.78,1.54-1.18,2.31-.21.44-.43.87-.65,1.3-.64,1.26-1.29,2.51-2,3.76q-3.11,6-6.39,11.79c-.74,1.33-1.49,2.64-2.25,4-.1.18-.21.36-.32.54-.81,1.43-1.65,2.85-2.49,4.27l-.23.39q-1.17,2-2.37,4c-.31.51-.62,1-.94,1.53-.64,1.06-1.29,2.11-2,3.16q-2.89,4.65-5.91,9.22c-.55.83-1.09,1.65-1.65,2.47l-1.84,2.73c-.44.65-.88,1.3-1.34,2-.61.91-1.24,1.81-1.88,2.71-.47.7-1,1.4-1.46,2.09-.82,1.16-1.64,2.31-2.48,3.46-.24.35-.49.69-.74,1q-1.74,2.4-3.51,4.77-1.89,2.54-3.81,5c-1.2,1.57-2.42,3.14-3.65,4.69q-.4.53-.84,1.05-1.48,1.88-3,3.74c-.19.25-.4.5-.61.75q-1.65,2-3.33,4c-.23.28-.46.56-.71.84q-1.86,2.24-3.78,4.44c-1.35,1.57-2.72,3.13-4.09,4.68l-.07.07q-2.08,2.36-4.23,4.69c-1.42,1.55-2.85,3.1-4.3,4.63s-2.9,3.07-4.37,4.58c-1.28,1.33-2.57,2.64-3.87,4q-4.49,4.53-9.11,8.93c-.63.61-1.27,1.21-1.91,1.8-1,.94-2,1.87-3,2.79-.31.29-.62.58-.93.85q-1.63,1.51-3.28,3c-.57.53-1.15,1-1.72,1.55l-.53.47-.52.45h0c0,.15,0,.3,0,.45l0,.46c-.08,1.34-.17,2.67-.26,4q-.06,1-.15,2.07c-.07,1-.14,2.08-.23,3.12-.09,1.22-.19,2.44-.29,3.66l0,.43c0,.4-.07.81-.11,1.22-.15,1.81-.31,3.61-.48,5.42v0a2.66,2.66,0,0,1,0,.28c-.14,1.52-.28,3-.44,4.56-.12,1.22-.25,2.44-.38,3.66-.07.69-.14,1.38-.22,2.06-.13,1.17-.26,2.33-.4,3.49-.09.83-.18,1.64-.29,2.47a.57.57,0,0,1,0,.13c-.18,1.51-.36,3-.55,4.52,0,.25-.07.5-.1.75-.19,1.5-.38,3-.59,4.49-.09.66-.17,1.32-.27,2s-.18,1.33-.28,2c0,.27-.07.54-.11.81l0,.19q-.37,2.65-.78,5.31c0,.26-.07.51-.11.75l-.06.4c-.15,1-.31,2-.48,3.06l-.06.39c-.22,1.44-.46,2.89-.7,4.33-.31,1.91-.64,3.82-1,5.73-.28,1.63-.57,3.26-.87,4.88l-.09.5c-.12.69-.25,1.39-.39,2.08l-.06.33c-.28,1.49-.56,3-.85,4.45-.34,1.76-.68,3.51-1,5.26,0,0,0,.07,0,.11-.12.61-.24,1.22-.37,1.82-.33,1.58-.66,3.17-1,4.75-.42,2-.86,4-1.3,6s-.85,3.76-1.28,5.64l-.21.91-1,4.29c-.27,1.12-.54,2.23-.82,3.34l-.81,3.28-.09.34q-.75,2.94-1.51,5.87l-.21.8q-.67,2.58-1.38,5.14c-.42,1.55-.84,3.09-1.28,4.64-.27,1-.55,1.94-.83,2.91-.39,1.4-.8,2.81-1.21,4.21q-.84,2.87-1.7,5.73c-.07.22-.13.44-.2.66q-.81,2.67-1.64,5.32-.92,2.92-1.86,5.84-.81,2.52-1.64,5-1.11,3.3-2.23,6.59c-.62,1.8-1.24,3.6-1.88,5.39q-1.15,3.3-2.36,6.59-1,2.68-2,5.36a525.18,525.18,0,0,1-88.51,152.51q-3.63,4.37-7.36,8.63c-1.23,1.42-2.48,2.83-3.73,4.24h0c-.92,1-1.85,2.07-2.78,3.1s-1.92,2.12-2.88,3.16l-.58.63-.12.13-2.4,2.58c-.68.74-1.37,1.47-2.07,2.2-1.08,1.14-2.16,2.28-3.26,3.41-.35.38-.71.75-1.08,1.12l-.82.85-.26.27-1.5,1.52c-.8.82-1.6,1.63-2.41,2.44l-.36.36q-1.67,1.68-3.36,3.33-1.86,1.85-3.75,3.66-3.76,3.63-7.61,7.19l-2.58,2.37c-1.48,1.36-3,2.71-4.48,4l-.42.38c-1.55,1.38-3.1,2.74-4.67,4.1-1.1,1-2.2,1.92-3.31,2.86l-1.83,1.57a622.86,622.86,0,0,0,139.11-95.77A496,496,0,0,0,1193.54,1113.15Zm-25.32-661.78q.12-9.4-.19-18.86a437.89,437.89,0,0,0-7.07-65.57A344.9,344.9,0,0,0,759.08,90.5a271.24,271.24,0,0,0-107.93,45.29,120.63,120.63,0,0,1,5.1,69q-.9,4.13-2.07,8.14a311.48,311.48,0,0,1,111.92-20.8,315.49,315.49,0,0,1,64.5,6.68A390.33,390.33,0,0,1,1141,595.05c0,.75,0,1.48-.09,2.23q.72-1.9,1.41-3.81c.29-.8.58-1.59.86-2.39q1.13-3.11,2.17-6.22,2.06-6,3.91-12.05c.4-1.28.79-2.57,1.18-3.85l.21-.72c.37-1.25.74-2.5,1.09-3.75.26-.89.51-1.79.75-2.68.36-1.23.7-2.47,1-3.71s.62-2.29.92-3.43q.27-1,.51-2c.29-1.08.56-2.16.82-3.24.09-.34.18-.68.25-1,.3-1.19.58-2.37.86-3.56.14-.57.27-1.14.4-1.71.26-1.11.51-2.22.76-3.34l.36-1.62c.23-1.06.46-2.12.68-3.19.12-.54.23-1.08.34-1.62.2-.92.38-1.85.56-2.78s.38-1.84.55-2.77q.9-4.6,1.68-9.24c.19-1.1.38-2.21.55-3.32s.41-2.48.59-3.73c.16-1,.32-2.09.47-3.13.25-1.7.49-3.41.71-5.11.27-2,.53-4,.76-6,.17-1.35.32-2.71.46-4.06,0-.14,0-.27,0-.41.15-1.37.29-2.75.42-4.12.08-.76.15-1.51.22-2.27s.14-1.52.2-2.28.16-1.79.23-2.69.14-1.68.19-2.52.11-1.41.16-2.11c.1-1.34.19-2.68.26-4a3,3,0,0,0,0-.42c.1-1.61.19-3.23.26-4.85a1.58,1.58,0,0,0,0-.31c.08-1.49.14-3,.2-4.49l0-.79c0-.89.06-1.78.08-2.68s.06-2,.08-3C1168.18,454.59,1168.21,453,1168.22,451.37Zm-44.22,143a372.48,372.48,0,0,0-86.68-253c-54.33-65.09-127-108.67-210.19-126a298.72,298.72,0,0,0-56.84-6.29l-1.79,0c.43.29.85.59,1.27.89l.15.12h0c.26.19.52.38.78.59l.34.26.29.23.14.12c.25.2.5.4.73.61s.58.5.86.76l.84.78c.5.48,1,1,1.45,1.47l3,3.87A24.59,24.59,0,0,1,782.21,234c-1.68,23.46-33.82,49.77-67.84,77.62-11.38,9.32-22.13,18.12-31.2,26.44l-1.58,1.46L680,341l-1.54,1.43-3,2.8-.54.51-3,4.25q6.25,6.27,12.26,12.89c.54.58,1.07,1.17,1.59,1.75a387.37,387.37,0,0,1,51.56,26.54c10.39,6.38,20.65,13.36,30.47,20.76,9.5,7.16,18.84,14.9,27.76,23a391.64,391.64,0,0,1,107.48,165,388.27,388.27,0,0,1,11.73,202.61c-2.73,13.09-6,26.28-9.87,39.2q-5.49,18.54-12.36,36.41a477.27,477.27,0,0,1-68.1,121.16c13.68-5.23,27.16-11.12,40.29-17.61,1.3-.64,2.6-1.28,3.9-1.94l1.7-.86q2.71-1.38,5.4-2.8l1.71-.9c4.39-2.34,8.73-4.73,13-7.16l4.32-2.5q5.91-3.48,11.69-7.1A467.25,467.25,0,0,0,1025,852.33q9.13-11.52,17.53-23.6,6.72-9.65,12.94-19.63a466.63,466.63,0,0,0,29.3-55c.61-1.34,1.2-2.68,1.79-4q4.94-11.24,9.28-22.75a472.46,472.46,0,0,0,14.64-45.78s0,0,0-.06l7.55-33.48h0A377.93,377.93,0,0,0,1124,594.41Zm-15.21,370.88q1.1-19.9,1-39.79c0-.93,0-1.85,0-2.78,0-1.17,0-2.33,0-3.5,0-1.69-.06-3.39-.11-5.08l-.09-3.27c0-.16,0-.31,0-.47,0-1.3-.08-2.61-.13-3.91-.12-3.16-.26-6.33-.42-9.49-.1-1.77-.2-3.55-.31-5.32s-.21-3.3-.32-4.95l-.09-1.2c-.11-1.62-.23-3.23-.36-4.84q-.15-2-.33-4.05l0-.36c-.07-.83-.14-1.67-.22-2.5,0-.48-.09-1-.13-1.46l-.3-3.25c-.17-1.62-.33-3.23-.5-4.85,0-.22,0-.45-.07-.67-.17-1.6-.34-3.2-.53-4.8s-.38-3.33-.58-5q-.39-3.16-.81-6.32c-.2-1.5-.4-3-.61-4.49,0-.4-.11-.8-.17-1.2-.14-1-.28-2-.43-3,0-.16,0-.31-.07-.47-.13-.89-.26-1.79-.4-2.67-.23-1.57-.48-3.14-.73-4.7-.19-1.19-.38-2.39-.58-3.58s-.38-2.33-.58-3.5q-.62-3.63-1.29-7.24l-.51-2.79c0-.25-.09-.5-.14-.75-.19-1-.39-2.07-.59-3.1-.06-.28-.11-.57-.17-.85-.24-1.25-.49-2.51-.74-3.76l-.33-1.63q-.45-2.24-.93-4.47-1.1-5.21-2.29-10.41c-.28-1.23-.57-2.46-.86-3.7,0,0,0-.06,0-.09l-.3-1.27q-.49-2.12-1-4.23a482.24,482.24,0,0,1-29.76,51.16q-6.52,9.81-13.55,19.3-4.83,6.54-9.89,12.91A484.79,484.79,0,0,1,898.87,982.77c-2.43,1.4-4.9,2.78-7.39,4.16-1.81,1-3.64,2-5.47,3q-3.43,1.83-6.92,3.62A524.17,524.17,0,0,1,651.41,1232q-15.92,8.49-32.49,15.9-7.51,3.38-15.15,6.51-5,2.06-10,4-13.31,5.17-26.81,9.57-10.21,3.36-20.52,6.26-16.27,4.61-32.75,8.13a524.47,524.47,0,0,1-294.53-21.89q-13.38-5-26.52-11a406.46,406.46,0,0,0,222.18,202.27c146.87,55,307.79,39.86,442-41.45l.32-.19.54-.33,1.67-1C956.44,1349.14,1029,1261,1069.09,1154q4.62-12.35,8.73-24.83,1.29-3.92,2.52-7.84a635.09,635.09,0,0,0,28.44-155.9.41.41,0,0,0,0-.11ZM776.73,728.48c0-1.92,0-3.84,0-5.77q0-3.8,0-7.58c0-1.76,0-3.51-.08-5.26,0-.65,0-1.3,0-1.94,0-1.53-.08-3.06-.13-4.59,0-.5,0-1-.05-1.51q-.09-3-.22-6v0q-.26-6-.62-11.94c0-.37,0-.74-.07-1.11-.06-1-.12-1.91-.19-2.87-.08-1.2-.16-2.39-.25-3.58,0-.52-.07-1-.12-1.54-.1-1.47-.22-2.93-.35-4.38-.07-.92-.15-1.84-.23-2.76s-.18-2.07-.28-3.11-.2-2.12-.31-3.18c-.15-1.68-.33-3.36-.51-5,0,0,0,0,0,0q-.28-2.75-.61-5.46-.43-3.84-.92-7.65-.4-3.14-.84-6.25c-.27-2-.56-4-.85-5.94-.08-.52-.15-1-.24-1.56-.16-1.09-.32-2.17-.5-3.25s-.36-2.29-.55-3.43c-.11-.75-.24-1.5-.37-2.24-.21-1.3-.42-2.58-.65-3.86q-1.46-8.43-3.15-16.71c-.17-.87-.35-1.73-.53-2.6-.23-1.15-.47-2.3-.73-3.44-.12-.6-.25-1.2-.38-1.8-.33-1.52-.66-3-1-4.54-.1-.49-.22-1-.33-1.47-.23-1-.46-2-.71-3s-.52-2.24-.79-3.35q-1.25-5.21-2.59-10.35c-.24-.93-.48-1.86-.73-2.78-.28-1.08-.57-2.16-.87-3.23s-.5-1.86-.77-2.79c-.19-.71-.38-1.41-.58-2.11-.32-1.12-.63-2.24-1-3.35-.42-1.46-.84-2.92-1.28-4.37a.09.09,0,0,0,0,0c-.36-1.2-.72-2.4-1.09-3.6-.29-1-.59-2-.9-2.94q-1.59-5.15-3.28-10.22c-.29-.87-.58-1.74-.88-2.61s-.65-1.94-1-2.91c-.24-.72-.49-1.43-.74-2.14-.44-1.26-.88-2.51-1.33-3.75-.14-.42-.29-.83-.44-1.24-.51-1.44-1-2.87-1.57-4.3-.12-.33-.24-.66-.37-1-.53-1.45-1.07-2.89-1.63-4.33-.79-2.1-1.61-4.2-2.44-6.28q-2.11-5.35-4.36-10.63c-.55-1.33-1.12-2.65-1.69-4-.43-1-.87-2-1.31-3-.64-1.46-1.28-2.91-1.94-4.35-.4-.89-.8-1.78-1.21-2.66s-.88-1.91-1.32-2.86l-.25-.54c-.64-1.37-1.28-2.73-1.94-4.09q-3.76-7.87-7.78-15.5c-.49-1-1-1.91-1.51-2.86-.38-.74-.78-1.47-1.18-2.2-.66-1.24-1.33-2.47-2-3.7q-2.65-4.86-5.44-9.59-1.49-2.58-3-5.11c-1-1.67-2-3.33-3-5a.93.93,0,0,0-.11-.19q-1.18-1.93-2.42-3.85c-.36-.59-.74-1.19-1.13-1.78q-1.25-2-2.54-3.92l-.15-.23q-3.18-4.86-6.49-9.58-1.65-2.37-3.33-4.71t-3.38-4.63c-1.09-1.49-2.2-3-3.32-4.44s-2-2.64-3-3.95c-.51-.66-1-1.31-1.55-2s-1.2-1.52-1.81-2.27c-.39-.5-.79-1-1.19-1.48q-1.51-1.87-3.06-3.72-1.79-2.16-3.61-4.27l0,0c-1.15-1.33-2.3-2.66-3.46-4-.18-.2-.36-.41-.55-.61-1-1.1-2-2.2-2.94-3.28-.33-.36-.66-.73-1-1.09-.89-1-1.8-2-2.71-2.93l-.43-.46c-10.12,19.25-36.12,16.25-36.12,16.25l26.79-25.79,17.19-16.82,1.42-1.39,0,0,2.94-2.8c1-1,2.05-2,3.11-2.93l2.89-2.71q1.82-1.69,3.71-3.43c9.41-8.62,20.32-17.56,31.88-27,3-2.49,6.17-5.05,9.32-7.65,24.94-20.59,51.64-44,52.7-58.73a8.72,8.72,0,0,0-2.54-7,22,22,0,0,0-2-1.89c-19.36-16.46-73.3-7.38-112,19.5a126.72,126.72,0,0,0-13.47,10.71,136,136,0,0,0-28.53,36.57c-.55,1-1.07,2.09-1.58,3.14-.3.62-.59,1.24-.88,1.86,0,.1-.09.21-.14.31l-.18.4h0c-.11.22-.21.45-.31.67v0a150,150,0,0,0-4.36,25.06h0A130.69,130.69,0,0,1,598.33,344c-.18,1.06-.38,2.15-.6,3.23a123.94,123.94,0,0,1-12.27,34.31l-.37.62a267,267,0,0,1-20.58,27.22c-41.33,48.09-100.73,84.65-167.25,103a336.24,336.24,0,0,1-89,12.3c-34.65,0-67.95-5.79-98.16-17.33a241.17,241.17,0,0,0-14,102.83,238.38,238.38,0,0,0,3.21,24.28,222.14,222.14,0,0,0,29.22,76.76l14.86,24.08-25.27-12.74a310.53,310.53,0,0,1-72.35-50.25c-.15,1.78-.28,3.57-.41,5.37-.11,1.56-.22,3.12-.31,4.68,0,.19,0,.37,0,.56q-.12,1.79-.21,3.57c-.09,1.42-.17,2.85-.24,4.28,0,.18,0,.36,0,.55q-.15,3-.27,6t-.22,6.31q-.11,3.17-.16,6.34c0,1.41,0,2.82-.07,4.23q0,1.38,0,2.76,0,2.88,0,5.76c0,1.93,0,3.85,0,5.77,0,1.72,0,3.45.06,5.16,0,.74,0,1.48.05,2.21,0,1.26,0,2.51.09,3.76,0,.3,0,.59,0,.89,0,1.27.07,2.54.12,3.8,0,.89.06,1.78.1,2.66,0,1.21.09,2.42.16,3.63,0,.32,0,.63,0,.95,0,1,.09,2.07.15,3.1q.09,1.85.21,3.66c.09,1.59.19,3.18.3,4.76q.51,7.52,1.22,14.89c.11,1.27.24,2.52.38,3.78,0,.49.09,1,.14,1.46.15,1.47.31,2.94.49,4.4s.36,3.19.57,4.77c.14,1.19.29,2.37.45,3.55q.69,5.33,1.5,10.56c.45,2.93.92,5.85,1.43,8.74.64,3.76,1.32,7.48,2.07,11.16.21,1.08.43,2.15.66,3.22s.43,2.14.67,3.2.51,2.39.78,3.58c.23,1,.47,2,.7,3q3.93,17.05,9.09,33c66.47-44.33,163.23-65.93,295-65.93s228.54,21.6,295,65.93c0,0,0,0,0-.06q1.29-4,2.51-8.12l.66-2.19c.08-.25.15-.5.22-.75.35-1.17.68-2.34,1-3.52s.66-2.36,1-3.55.67-2.48,1-3.73a5.36,5.36,0,0,0,.14-.54c.22-.8.42-1.61.61-2.42.43-1.64.83-3.29,1.22-4.94.35-1.46.7-2.93,1-4.4.26-1.13.51-2.26.76-3.39q2.63-11.9,4.62-24.31c.22-1.35.43-2.7.64-4.06q.81-5.24,1.5-10.56c.16-1.18.31-2.36.45-3.55q.32-2.37.57-4.77c.18-1.46.34-2.93.49-4.4.05-.48.11-1,.14-1.46.14-1.26.27-2.51.38-3.78q.72-7.37,1.22-14.89c.11-1.58.21-3.17.3-4.76q.12-1.81.21-3.66c.06-1,.11-2.06.15-3.1,0-.32,0-.63,0-.95.07-1.21.12-2.42.16-3.63,0-.88.07-1.77.1-2.66,0-1.26.09-2.53.12-3.8,0-.3,0-.59,0-.89,0-1.25.07-2.5.09-3.76,0-.73,0-1.47,0-2.21C776.7,731.93,776.72,730.2,776.73,728.48ZM746.3,897.2l.57-1.42c-62.39-43.9-156.3-65.26-286.61-65.26S236,851.88,173.65,895.78q.28.75.6,1.5c.4,1,.8,2,1.21,2.94.7,1.67,1.41,3.34,2.14,5,.4.93.81,1.87,1.23,2.79s.85,1.88,1.28,2.81q1.21,2.69,2.51,5.32c.57,1.18,1.14,2.35,1.73,3.52q1.72,3.48,3.54,6.89,1.34,2.57,2.75,5.09c.93,1.68,1.87,3.35,2.84,5,1.16,2,2.33,4,3.54,5.94.39.64.78,1.28,1.19,1.92,1.15,1.89,2.35,3.76,3.56,5.62.42.66.86,1.32,1.3,2,.84,1.28,1.69,2.54,2.56,3.8,1.06,1.55,2.14,3.1,3.24,4.62.3.43.61.86.92,1.28.7,1,1.42,2,2.14,2.92l.49.65q1.44,1.95,2.93,3.86a3,3,0,0,0,.22.28c.7.9,1.4,1.79,2.12,2.68.35.45.71.89,1.07,1.34.75.94,1.52,1.87,2.29,2.8s1.47,1.77,2.22,2.65,1.49,1.75,2.25,2.62l.68.78q1.78,2.05,3.62,4.06l.07.07q1.73,1.89,3.49,3.74c.72.77,1.45,1.53,2.19,2.29q3.17,3.27,6.43,6.41l.58.55c.94.92,1.89,1.81,2.84,2.7l.09.09c1.31,1.22,2.64,2.43,4,3.62l.13.12q1.78,1.61,3.6,3.15c.19.18.39.34.58.51.52.45,1.05.9,1.58,1.33s.8.69,1.21,1,1,.82,1.46,1.22c1.33,1.1,2.68,2.19,4,3.25s2.88,2.26,4.33,3.36l1,.75c1.12.86,2.25,1.69,3.39,2.52l1,.75c1.14.83,2.29,1.65,3.44,2.45l1.05.73q2.79,1.93,5.64,3.79c.83.55,1.67,1.1,2.51,1.63,1.12.72,2.24,1.43,3.38,2.13l1.25.77c.74.46,1.49.91,2.24,1.35s1.65,1,2.49,1.48,1.51.89,2.28,1.32,1.68,1,2.53,1.43,1.54.87,2.32,1.28,1.69.93,2.55,1.38c1.1.6,2.22,1.19,3.34,1.76l1.59.81q2.48,1.27,5,2.49c1.68.82,3.36,1.61,5.06,2.39s3.18,1.45,4.78,2.15c.94.42,1.88.83,2.83,1.22s1.79.77,2.69,1.13,1.54.65,2.32,1c1,.4,1.94.79,2.92,1.17,1.76.7,3.53,1.37,5.31,2s3.56,1.31,5.36,1.93c.87.31,1.74.61,2.62.9s1.87.64,2.81.94,1.76.58,2.64.85c1.47.48,2.94.94,4.42,1.38l1.45.44,2.52.73c.89.26,1.78.52,2.68.76s1.82.51,2.74.75c.65.18,1.31.36,2,.52l.93.25.82.2,2.13.54c.91.24,1.82.46,2.73.67s2,.48,3,.7l2.66.61.2,0,1.75.38c1,.23,2.08.45,3.13.66a.86.86,0,0,0,.17,0l.64.14,1.13.22c.63.13,1.27.26,1.91.37,1.12.23,2.24.44,3.36.64l3.93.69q.71.14,1.41.24l2.31.38,3.64.56,1.59.23,3,.42,1.42.19c1.84.25,3.7.47,5.56.69H416l.22,0,.53.06,1.06.11q5.7.65,11.5,1.09c1.77.15,3.54.28,5.32.39l.29,0,2.36.14.51,0,1.93.1c1.11.06,2.23.12,3.35.16l2.54.1,1.88.07,2.76.07h.3l3.22.07q3.23,0,6.48,0t6.48,0l3.22-.07h.3l2.76-.07,1.88-.07,2.54-.1c1.12,0,2.24-.1,3.35-.16l1.93-.1.51,0,2.36-.14.29,0c.41,0,.83,0,1.24-.09l2.89-.2q6.4-.48,12.7-1.19l1.79-.19h.06c1.86-.22,3.72-.44,5.56-.69l1.42-.19,3-.42,1.59-.23,3.64-.56,2.31-.38c.94-.15,1.87-.31,2.81-.48s1.69-.29,2.53-.45c1.12-.2,2.24-.41,3.36-.64.64-.11,1.28-.24,1.91-.37l1.13-.22.64-.14a.86.86,0,0,0,.17,0c1-.21,2.09-.43,3.13-.66l1.75-.38.2,0,2.66-.61c1-.22,2-.45,3-.7s1.82-.43,2.73-.67l2.13-.54.82-.2.93-.25c.65-.16,1.31-.34,2-.52.92-.24,1.83-.49,2.74-.75s1.79-.5,2.68-.76l2.52-.73,1.45-.44c1.48-.44,3-.9,4.42-1.38.88-.27,1.76-.56,2.64-.85s1.88-.62,2.81-.94,1.75-.59,2.62-.9c.58-.2,1.15-.4,1.73-.62s1.15-.4,1.73-.62c1.07-.38,2.14-.77,3.2-1.18.74-.27,1.47-.55,2.2-.84l1.81-.7c1-.38,1.95-.77,2.92-1.17.78-.3,1.55-.62,2.32-1s1.8-.74,2.69-1.13,1.89-.8,2.83-1.22c.78-.34,1.55-.68,2.32-1s1.44-.64,2.16-1c1-.44,2-.9,2.93-1.36s1.63-.77,2.44-1.17,1.73-.83,2.59-1.27,1.61-.79,2.4-1.21,1.71-.87,2.56-1.32l2.27-1.19c.88-.47,1.76-.94,2.64-1.43s1.56-.85,2.33-1.29,1.68-.94,2.51-1.42,1.54-.88,2.3-1.33,1.66-1,2.48-1.47,1.51-.9,2.26-1.37c1.58-1,3.13-1.93,4.68-2.93.81-.51,1.62-1,2.42-1.57s1.46-.95,2.18-1.44c1.53-1,3-2,4.55-3.11.4-.27.79-.55,1.19-.84,1-.67,1.91-1.35,2.86-2l1.6-1.18c.74-.53,1.47-1.08,2.2-1.64s1.46-1.09,2.19-1.66c1.06-.81,2.12-1.64,3.17-2.47.68-.53,1.36-1.07,2-1.63s1.33-1.06,2-1.61l1.42-1.18c1-.79,1.89-1.58,2.83-2.39l.55-.48q1.72-1.47,3.42-3l.77-.68q1.78-1.6,3.54-3.24l.1-.1c1.21-1.13,2.42-2.27,3.61-3.43q4.71-4.54,9.21-9.35c.83-.87,1.64-1.75,2.45-2.63.55-.6,1.11-1.21,1.65-1.83.39-.42.77-.84,1.14-1.27l1.26-1.41c.78-.9,1.56-1.8,2.32-2.71q.48-.54.93-1.08l.4-.47c.77-.92,1.54-1.84,2.29-2.77.63-.76,1.26-1.53,1.87-2.31q1.37-1.7,2.7-3.41,1.71-2.21,3.39-4.45c.26-.34.51-.69.76-1,.51-.69,1-1.39,1.52-2.09.26-.35.52-.7.77-1.06.6-.82,1.18-1.65,1.76-2.48.3-.41.59-.83.87-1.24s.58-.83.87-1.25c.78-1.14,1.55-2.28,2.31-3.43.29-.42.57-.84.84-1.27s.49-.73.72-1.1.49-.73.72-1.11c.56-.85,1.1-1.7,1.64-2.56.24-.38.48-.75.71-1.13q.76-1.21,1.5-2.43c.27-.43.54-.87.79-1.3s.47-.77.69-1.15.47-.77.69-1.16c.53-.87,1-1.74,1.54-2.62s.91-1.56,1.34-2.35,1-1.78,1.5-2.67.89-1.59,1.31-2.39,1-1.8,1.45-2.7.86-1.62,1.27-2.43,1-1.82,1.4-2.74q1.34-2.61,2.6-5.25c.41-.83.81-1.66,1.19-2.5s.89-1.88,1.32-2.82.78-1.69,1.15-2.54.8-1.76,1.19-2.65c0-.12.11-.24.16-.37q1.15-2.64,2.27-5.32c.19-.43.37-.87.54-1.3S746.11,897.67,746.3,897.2ZM634.21,221.34a104.68,104.68,0,0,0,3.56-75.5A106,106,0,0,0,627.57,124c-.74-1.22-1.5-2.41-2.26-3.56A131.46,131.46,0,0,0,596.1,89.22a135.51,135.51,0,0,0-82.39-27.94,132.39,132.39,0,0,0-41.5,6.64A149.49,149.49,0,0,1,553.31,128c.25.38.5.76.74,1.14A120.79,120.79,0,0,1,572.13,215q-.92,5.63-2.35,11.08-1.15,4.44-2.65,8.76a111.69,111.69,0,0,1,14.19,17.73l8.4,17.78q3.38-1.81,6.57-4A106.37,106.37,0,0,0,614.52,251,104.27,104.27,0,0,0,634.21,221.34Zm-50,100.2c0-3.27-.14-6.59-.43-9.9h0c0-.35-.05-.68-.08-1-.33-3.44-.8-6.82-1.42-10.07l-.11-.56-.06-.34c0-.19-.07-.37-.11-.55s-.07-.37-.11-.56c-.22-1.11-.48-2.27-.77-3.5s-.55-2.23-.85-3.33c0,0,0,0,0-.06-.11-.45-.25-.91-.38-1.36s-.24-.87-.37-1.31c-.2-.65-.4-1.31-.61-2s-.4-1.24-.61-1.86c-.36-1.08-.75-2.15-1.15-3.21-.19-.53-.4-1.06-.61-1.59,0,0,0-.06,0-.1h0c-.13-.34-.26-.68-.4-1-.35-.87-.72-1.73-1.09-2.58l0-.11c-.32-.74-.66-1.48-1-2.21,0-.07-.07-.14-.1-.22l-.93-1.94-.29-.58c-.35-.68-.69-1.36-1-2a99.41,99.41,0,0,0-11.88-17.64q-2.31-2.73-4.82-5.28c-.46-.47-.92-.91-1.37-1.35-1-1-2.08-2-3.08-2.86l-1-.87,0,0c-.52-.45-1-.89-1.57-1.32l-1.32-1.06c-.89-.71-1.8-1.39-2.71-2.05l-.28-.21c-1.5-1.09-3-2.11-4.59-3.09a78.78,78.78,0,0,0-14.3-7.05l-.36-.14h0a75,75,0,0,0-45.92-2c-16.11,4.41-30.71,14.11-42.23,28.06l-.47.57-.12.14-.49.61c-1.42,1.78-2.78,3.62-4.08,5.5a102.35,102.35,0,0,0-9.3,16.66c-.42,1.18-.82,2.35-1.22,3.53-2.09,6.23-3.88,12.43-5.43,18.08-.39,1.42-.76,2.8-1.12,4.14l-.19.72c-1,3.65-1.92,7.32-2.86,11-2.55,9.86-5.18,20.06-8.26,29.73-6.86,21.54-14.68,36.39-25.33,48.15a285,285,0,0,1-42.08,37.91l-.95.69-.47.35-.48.34a289.49,289.49,0,0,1-111.1,49.39l-3.73.73q-10.78,2.06-21.69,3.2c3.91,1.93,7.89,3.74,11.91,5.44,109.44,46.12,260.4,6.34,343.68-90.55a250.37,250.37,0,0,0,19.15-25.29,108.05,108.05,0,0,0,10.52-29.57c.18-.92.35-1.85.51-2.78A116.4,116.4,0,0,0,584.26,321.54ZM556.38,213.42a104.85,104.85,0,0,0-15.78-75.63l-.13-.22c-.15-.24-.31-.47-.46-.7q-3.53-5.26-7.48-10.13c-.22-.2-.44-.4-.67-.59a49.71,49.71,0,0,0-12.9-7.47,102.43,102.43,0,0,0-66.47-4.3l-1.43.4a102.85,102.85,0,0,0-42.49,24.88q-2.76,2.68-5.31,5.58l-.38.43c-.91,1-1.8,2.1-2.66,3.18-.73.91-2,2.14-2.37,3.19,1.89-.56,3.77-1.18,5.69-1.7a124,124,0,0,1,36.81-4.4,109.89,109.89,0,0,1,36.19,7.29c25,9.76,46.15,30,55.23,55.19a11.73,11.73,0,0,0,1.66,3.43,10.69,10.69,0,0,0,3.2,2.39l1.61.91c-1.52-.74-3.07-1.44-4.63-2.08l-.06-.17c0,.06,0,.12.05.17h0c1.56.65,3.11,1.34,4.63,2.08h0l13,7.4A55.31,55.31,0,0,1,556.38,213.42Zm-5.26,9.23.14.08-.14-.09ZM514,207.31c-.32-.64-.64-1.28-1-1.91-.59-1.12-1.2-2.21-1.85-3.3-.2-.34-.4-.69-.62-1s-.52-.84-.78-1.26l-.36-.56A78.89,78.89,0,0,0,467.67,167l-.4-.14-.28-.09-.1,0a100.68,100.68,0,0,0-10.6-2.79l-1.32-.27a101.38,101.38,0,0,0-72.39,13.15l-21.09,12.91L371,166.92c.47-1.13,1-2.24,1.47-3.35.21-.48.43-.95.66-1.43s.37-.8.57-1.19c.29-.61.6-1.23.91-1.84.43-.85.87-1.69,1.32-2.53s.82-1.5,1.24-2.24l.21-.39c.46-.78.91-1.56,1.38-2.33s.8-1.32,1.21-2c.32-.5.64-1,1-1.5a3.5,3.5,0,0,1,.23-.35l.65-1c-30.31-1.16-59.43,4.66-85.39,17.08L351,225.51c1.59.07,3.21.16,4.83.26l3.4.23,2.57.2H362c4,.33,8,.74,12,1.21.88.1,1.77.21,2.65.33l2.37.31h.11l2.56.36.73.11,2.34.35c4.7.72,9.47,1.56,14.22,2.52l2.61.53c4.82,1,9.86,2.17,14.91,3.47l2.65.7,1.66.44c1.92.52,3.86,1.08,5.8,1.64l.11,0,.69.21h0c.13-.14.26-.29.4-.43.51-.56,1-1.11,1.54-1.65l1.19-1.21c.46-.47.92-.93,1.39-1.38l1.41-1.35,1.44-1.33,1.37-1.22q3-2.59,6.08-4.91c.51-.39,1-.76,1.55-1.13,1-.77,2.12-1.5,3.2-2.21.51-.34,1-.67,1.54-1s1.07-.68,1.61-1c1.08-.66,2.16-1.29,3.26-1.91l1.71-.92c1-.53,2-1.05,3.06-1.55l.64-.31c1-.48,2-.94,3-1.38l1.51-.64c.93-.38,1.86-.75,2.8-1.09.5-.2,1-.38,1.52-.56s1.16-.41,1.75-.6l1.5-.49c1.1-.34,2.19-.67,3.3-1,3-.81,5.95-1.46,9-2,1.72-.29,3.45-.53,5.18-.71l1.2-.12c.8-.08,1.6-.15,2.41-.2.23,0,.47,0,.71-.05l1.25-.07H494c.5,0,1-.05,1.49-.06s.91,0,1.37,0H499c.54,0,1.09,0,1.64,0s1.09,0,1.63.05c2,.09,4,.24,6.05.47.67.07,1.33.15,2,.24Q512.17,207,514,207.31Zm-97.35,44.84.08-.12-.22-.06-1.51-.4c-.88-.24-1.69-.46-2.48-.65-4.88-1.26-9.66-2.38-14.3-3.34-.84-.18-1.61-.34-2.38-.48-4.58-.92-9.11-1.72-13.53-2.4l-2.28-.35-.42,0-.28,0-2.37-.34-.15,0-2.23-.29c-.87-.11-1.7-.22-2.52-.31l-3.47-.4-2.37-.24h0l18.64,21,17.61,19.88c0-.18.11-.35.16-.53.25-.85.52-1.71.79-2.57,0-.11.06-.22.1-.33.31-1,.64-2,1-3q1.06-3.27,2.23-6.59l.22-.53c.42-1,.86-1.92,1.31-2.87.21-.45.42-.9.64-1.34.45-.93.91-1.86,1.39-2.78.32-.61.64-1.22,1-1.83l.48-.88c.31-.57.63-1.13.95-1.69l.11-.19c.37-.65.75-1.29,1.14-1.93h0l.09-.14Q415.3,254.21,416.66,252.15ZM397.37,302l-11.72-13.23-17.13-19.34-24.81-28-14.17-16-58.49-66L157.57,31.2l73.7,161.93,20.26,44.51,4.57,10.05h0l2.08,4.59,1.38,3,15.24,33.5v0l12.76,28,3.88,8.53,6.44,14.13,18.75,41.2,14.43,31.7c.7-.54,1.4-1.08,2.09-1.63l2.56-2.05c.77-.62,1.53-1.25,2.29-1.88s1.49-1.23,2.23-1.87l.07-.05c.74-.62,1.47-1.25,2.2-1.89q6.69-5.77,12.9-11.91c.7-.68,1.39-1.36,2.06-2.05s1.37-1.38,2-2.07c.85-.87,1.69-1.75,2.51-2.63.5-.51,1-1,1.46-1.56.66-.7,1.31-1.41,1.95-2.12,9-10,15.81-23,21.95-42.27,2.94-9.24,5.4-18.78,8-28.87C396.05,307.05,396.7,304.5,397.37,302ZM317.88,422.06l-14.75-32.42a258.46,258.46,0,0,0-69.7,71.44A274.83,274.83,0,0,0,317.88,422.06ZM296.4,374.85l-8.94-19.63-2.06-4.54-9.74-21.42-.73-1.59L246,264.08q-2.61-2.94-5.43-5.78l-1.22.47a241.75,241.75,0,0,0-37.66,18.54l-1.37.83c-1.19.73-2.37,1.47-3.55,2.22q-2.44,1.56-4.86,3.18A251.55,251.55,0,0,0,170.09,300c-2,1.64-3.93,3.33-5.85,5.05-2.1,1.87-4.16,3.76-6.18,5.69-74,70.18-99.64,174.13-63.71,261.25a240.16,240.16,0,0,0,22.45,41.9q4.7,7,9.87,13.75a265.05,265.05,0,0,0,21.08,24.25,287.58,287.58,0,0,0,54,43.18,242.93,242.93,0,0,1-18.17-57.69,253.08,253.08,0,0,1-3.41-25.91,257.09,257.09,0,0,1,15.19-110.3q-2.21-1-4.39-2.08c-1-.49-2-1-3.06-1.51l-.72-.37-.1-.05c-1.17-.59-2.34-1.2-3.5-1.81l-.42-.22-3.22-1.75-.38-.21c-1.21-.67-2.42-1.35-3.61-2.05s-2.42-1.41-3.62-2.13l-.74-.45-3.08-1.91c-.8-.5-1.59-1-2.38-1.52l-1.26-.82-22.35-14.69h26.74l3.76,0,1.54,0c.33,0,.65,0,1,0,.8,0,1.6,0,2.4-.07,1,0,1.93-.07,2.89-.12s1.93-.09,2.89-.15l2.89-.19,2.44-.18c2.1-.18,4.19-.37,6.29-.59,1-.11,1.91-.21,2.86-.33l2.49-.31c1.07-.13,2.13-.28,3.19-.43l2.66-.39q2.65-.4,5.31-.87C232.08,430,261.16,398.75,296.4,374.85ZM243,257.4l.15,0c-.1-.11-.22-.21-.33-.32ZM225.81,247l1.25-.52q-4-3.07-8.35-5.92a159.1,159.1,0,0,0-13.8-8.12,163.9,163.9,0,0,0-36.29-13.87l-.1,0c-25.43-6.26-46.33-4.17-55.91,5.58a8.7,8.7,0,0,0-2.77,6.74V231c.32,8.45,8.94,20,20.81,32.43,3.86,4,8.06,8.14,12.43,12.26,4.83,4.55,9.87,9.11,14.88,13.55.3-.27.61-.52.91-.78.59-.51,1.19-1,1.79-1.51.79-.66,1.59-1.32,2.4-2s1.61-1.31,2.42-1.95,1.45-1.15,2.18-1.72c1.32-1,2.66-2,4-3.05l2.34-1.73c.79-.58,1.57-1.15,2.36-1.71s1.59-1.13,2.38-1.68c1-.69,2-1.37,2.95-2l1.85-1.24q2.3-1.53,4.62-3c.89-.57,1.79-1.14,2.69-1.69s1.69-1.05,2.54-1.56,1.9-1.14,2.85-1.69l16.46-8.9c1-.48,1.95-1,2.92-1.42q2.09-1,4.19-2C221.81,248.74,223.81,247.85,225.81,247ZM146,300.07c-6.66-5.92-13.07-11.76-19-17.5a205.72,205.72,0,0,0-59.79,42.17c-28.35,29-46.68,67.92-50.3,106.72C12.33,480.82,24.83,547.87,73.74,588a135,135,0,0,0,15.69,11.12h0c-.46-.87-.91-1.73-1.35-2.6s-.89-1.74-1.32-2.62-.86-1.75-1.29-2.62-.84-1.75-1.25-2.63S83.41,586.9,83,586s-.8-1.76-1.19-2.65q-1.17-2.65-2.27-5.32c-20-48.49-22.73-102-7.92-154.66C84.58,377.34,110.83,333.92,146,300.07Z"/><path class="cls-2" d="M1254.23,663.81a344.78,344.78,0,0,1-21.9,120.89c-2.26,6-4.68,12.1-7.2,18-1,2.41-2.07,4.82-3.15,7.2-.58,1.33-1.18,2.65-1.79,4s-1.28,2.78-1.93,4.16-1.18,2.49-1.78,3.72q-.4.87-.84,1.74c-.51,1.05-1,2.1-1.55,3.14-.3.63-.62,1.26-.95,1.89-.54,1.1-1.1,2.2-1.67,3.29-.34.68-.69,1.35-1,2-.48.95-1,1.9-1.49,2.85q-5.31,10-11.11,19.71c-.66,1.1-1.32,2.18-2,3.27-.3.49-.6,1-.91,1.48-.64,1.05-1.3,2.1-2,3.15-.34.57-.7,1.13-1.07,1.7-.48.78-1,1.56-1.49,2.33q-1.34,2.08-2.71,4.15t-2.63,3.92c-.4.61-.81,1.21-1.23,1.81q-1.29,1.9-2.62,3.78l-.4.57q-1.32,1.89-2.67,3.75-3.6,5-7.36,9.92-1.63,2.13-3.3,4.25c-.78,1-1.57,2-2.37,3-.65.81-1.3,1.63-2,2.43-.36.45-.72.9-1.1,1.34-.79,1-1.59,2-2.41,2.93l-2.09,2.49-.69.81q-1.39,1.63-2.8,3.26-7.3,8.41-15.07,16.46c-.81.84-1.62,1.68-2.45,2.51-1.13,1.16-2.28,2.32-3.43,3.46-.83.84-1.67,1.67-2.51,2.49-.56.55-1.12,1.1-1.68,1.63s-.87.86-1.31,1.28v0c0-1.24.06-2.48.07-3.71,0-.91,0-1.83,0-2.75,0-1.11,0-2.22,0-3.32,0-1.48,0-3,0-4.43v-.14c0-1.69,0-3.37,0-5.06,0-.34,0-.67,0-1,0-3.25-.08-6.49-.16-9.74l0-1.15q-.07-2.84-.18-5.67l-.06-1.65c0-1.17-.09-2.35-.14-3.53-.08-1.85-.16-3.7-.26-5.56-.07-1.43-.15-2.87-.24-4.31-.06-1.15-.14-2.31-.21-3.46q-.12-2.07-.27-4.14c-.08-1.16-.17-2.33-.26-3.49s-.17-2.22-.26-3.33l-.18-2.24c-.06-.74-.12-1.48-.19-2.23v0l-.12-1.33c-.13-1.42-.26-2.84-.4-4.27l0-.32c-.11-1.21-.23-2.43-.36-3.65,0-.24-.05-.49-.08-.73-.1-1-.2-2-.31-3l-.09-.8c-.1-.93-.2-1.87-.31-2.8q-.64-5.64-1.38-11.26-.43-3.36-.92-6.72a1,1,0,0,1,0-.17c-.21-1.44-.42-2.9-.64-4.34,0-.22-.06-.44-.1-.66-.15-1.06-.31-2.11-.48-3.16-.12-.79-.24-1.57-.37-2.36,0-.17,0-.34-.08-.51-.24-1.5-.49-3-.74-4.52-.31-1.86-.63-3.73-1-5.59s-.66-3.73-1-5.59-.64-3.45-1-5.17c0-.18-.08-.36-.11-.54-.28-1.46-.57-2.91-.86-4.37,0-.18-.07-.36-.11-.54-.11-.52-.21-1-.32-1.56l-.12-.58-.69-3.31c0-.11,0-.22-.07-.33s-.1-.49-.16-.74c-.3-1.42-.6-2.84-.92-4.26-.13-.61-.26-1.23-.41-1.84-.34-1.53-.68-3.07-1-4.6-.42-1.85-.86-3.7-1.3-5.55s-.89-3.69-1.35-5.53-.92-3.69-1.4-5.53-.93-3.58-1.4-5.36c-.41-1.54-.83-3.08-1.25-4.62-.06-.25-.13-.49-.2-.74s-.11-.39-.17-.59c-.33-1.21-.67-2.43-1-3.64.55-1.28,1.09-2.57,1.62-3.86a2.44,2.44,0,0,0,.1-.24c.35-.83.7-1.67,1-2.51.46-1.1.9-2.2,1.34-3.31.26-.62.5-1.25.75-1.88.56-1.39,1.11-2.78,1.64-4.18s1-2.57,1.47-3.86a1.17,1.17,0,0,0,.09-.24c.12-.29.22-.58.33-.87,0,0,0,0,0,0L1130,669.3a.19.19,0,0,0,0-.07c.07-.28.13-.57.19-.86.24-1,.47-2,.69-3.08.37-1.66.72-3.32,1.07-5,0,0,0-.06,0-.09l1-1.91.63-1.19c.21-.39.42-.78.61-1.17.64-1.2,1.27-2.41,1.9-3.63.32-.61.63-1.22.94-1.83.6-1.17,1.19-2.35,1.78-3.54q1.21-2.43,2.4-4.88,1.28-2.62,2.51-5.27c.81-1.74,1.61-3.47,2.4-5.22q1.29-2.85,2.54-5.72c.48-1.09,1-2.18,1.41-3.28.35-.79.68-1.58,1-2.37.75-1.78,1.49-3.57,2.21-5.35q1.92-4.73,3.71-9.47c.44-1.16.88-2.32,1.3-3.48q1.19-3.18,2.31-6.37c.5-1.39,1-2.79,1.46-4.19,0-.13.09-.26.13-.39.44-1.26.86-2.53,1.28-3.79.18-.53.36-1.07.53-1.61.26-.79.52-1.59.77-2.38.38-1.16.75-2.33,1.11-3.5s.73-2.33,1.07-3.5.77-2.51,1.14-3.78l.39-1.34c.4-1.35.78-2.71,1.16-4.07s.72-2.58,1.07-3.87.74-2.76,1.09-4.14q.13-.45.24-.9c.24-.9.47-1.8.68-2.7s.5-1.94.73-2.91c.38-1.52.74-3,1.09-4.55q1.19-5.1,2.26-10.21l.18-.9c.32-1.55.64-3.1.94-4.65s.63-3.31.94-5c.43-2.37.85-4.74,1.24-7.12.17-1,.33-2,.48-3q.19-1.14.36-2.28c.18-1.11.35-2.22.5-3.34.07-.43.14-.86.19-1.3.16-1.05.31-2.1.45-3.16s.27-2,.39-3,.26-2,.38-3c0-.39.1-.78.14-1.17.15-1.23.29-2.46.43-3.69.08-.67.15-1.34.22-2,.16-1.52.32-3,.46-4.57s.28-2.89.4-4.35l.12-1.39q.16-1.93.3-3.87c0-.46.08-.92.11-1.39q.17-2.34.3-4.68.39-6.18.58-12.38l.12-3.64A345.13,345.13,0,0,1,1254.23,663.81Z"/><path class="cls-3" d="M1229.72,835.67a499.09,499.09,0,0,1-156.8,445.53A622.86,622.86,0,0,1,933.81,1377l1.83-1.57c1.11-.94,2.21-1.9,3.31-2.86,1.57-1.36,3.12-2.72,4.67-4.1l.42-.38c1.5-1.34,3-2.69,4.48-4l2.58-2.37q3.84-3.56,7.61-7.19,1.89-1.82,3.75-3.66,1.69-1.65,3.36-3.33l.36-.36c.81-.81,1.61-1.62,2.41-2.44l1.5-1.52.26-.27.82-.85c.37-.37.73-.74,1.08-1.12,1.1-1.13,2.18-2.27,3.26-3.41.7-.73,1.39-1.46,2.07-2.2l2.4-2.58.12-.13.58-.63c1-1,1.92-2.1,2.88-3.16s1.86-2.06,2.78-3.1h0c1.25-1.41,2.5-2.82,3.73-4.24q3.72-4.28,7.36-8.63A525.18,525.18,0,0,0,1086,1160.3q1-2.67,2-5.36,1.2-3.29,2.36-6.59c.64-1.79,1.26-3.59,1.88-5.39q1.13-3.29,2.23-6.59.82-2.52,1.64-5,.95-2.91,1.86-5.84.82-2.65,1.64-5.32c.07-.22.13-.44.2-.66q.85-2.87,1.7-5.73c.41-1.4.82-2.81,1.21-4.21.28-1,.56-1.94.83-2.91.44-1.55.86-3.09,1.28-4.64q.71-2.57,1.38-5.14l.21-.8q.76-2.92,1.51-5.87l.09-.34.81-3.28c.28-1.11.55-2.22.82-3.34l1-4.29.21-.91q.64-2.82,1.28-5.64c.44-2,.88-4,1.3-6,.34-1.58.67-3.17,1-4.75.13-.6.25-1.21.37-1.82,0,0,0-.07,0-.11.36-1.75.7-3.5,1-5.26.29-1.48.57-3,.85-4.45l.06-.33c.14-.69.27-1.39.39-2.08l.09-.5c.3-1.62.59-3.25.87-4.88.33-1.91.66-3.82,1-5.73.24-1.44.48-2.89.7-4.33l.06-.39c.17-1,.33-2,.48-3.06l.06-.4c0-.24.08-.49.11-.75q.4-2.65.78-5.31l0-.19c0-.27.08-.54.11-.81.1-.66.19-1.32.28-2s.18-1.32.27-2c.21-1.5.4-3,.59-4.49,0-.25.07-.5.1-.75.19-1.51.37-3,.55-4.52a.57.57,0,0,0,0-.13c.11-.83.2-1.64.29-2.47.14-1.16.27-2.32.4-3.49.08-.68.15-1.37.22-2.06.13-1.22.26-2.44.38-3.66.16-1.52.3-3,.44-4.56a2.66,2.66,0,0,0,0-.28v0c.17-1.81.33-3.61.48-5.42,0-.41.08-.82.11-1.22l0-.43c.1-1.22.2-2.44.29-3.66.09-1,.16-2.08.23-3.12q.09-1,.15-2.07c.09-1.34.18-2.67.26-4l0-.46c0-.15,0-.3,0-.45h0l.52-.45.53-.47c.57-.51,1.15-1,1.72-1.55q1.65-1.47,3.28-3c.31-.27.62-.56.93-.85,1-.92,2-1.85,3-2.79.64-.59,1.28-1.19,1.91-1.8q4.63-4.41,9.11-8.93c1.3-1.31,2.59-2.62,3.87-4q2.2-2.26,4.37-4.58c1.45-1.53,2.88-3.08,4.3-4.63s2.84-3.12,4.23-4.69l.07-.07c1.37-1.55,2.74-3.11,4.09-4.68s2.54-3,3.78-4.44c.25-.28.48-.56.71-.84q1.68-2,3.33-4c.21-.25.42-.5.61-.75q1.53-1.86,3-3.74.43-.52.84-1.05c1.23-1.55,2.45-3.12,3.65-4.69s2.55-3.33,3.81-5,2.35-3.17,3.51-4.77c.25-.34.5-.68.74-1,.84-1.15,1.66-2.3,2.48-3.46.5-.69,1-1.39,1.46-2.09.64-.9,1.27-1.8,1.88-2.71.46-.65.9-1.3,1.34-2l1.84-2.73c.56-.82,1.1-1.64,1.65-2.47q3-4.58,5.91-9.22c.66-1,1.31-2.1,2-3.16.32-.51.63-1,.94-1.53q1.2-2,2.37-4l.23-.39c.84-1.42,1.68-2.84,2.49-4.27.11-.18.22-.36.32-.54.76-1.32,1.51-2.63,2.25-4q3.29-5.83,6.39-11.79c.66-1.25,1.31-2.5,2-3.76.22-.43.44-.86.65-1.3C1228.94,837.21,1229.33,836.44,1229.72,835.67Z"/><path class="cls-4" d="M1168,432.51q.3,9.45.19,18.86c0,1.61,0,3.22-.08,4.83,0,1-.05,2-.08,3s0,1.79-.08,2.68l0,.79c-.06,1.5-.12,3-.2,4.49a1.58,1.58,0,0,1,0,.31c-.07,1.62-.16,3.24-.26,4.85a3,3,0,0,1,0,.42c-.07,1.35-.16,2.69-.26,4,0,.7-.1,1.41-.16,2.11s-.12,1.68-.19,2.52-.14,1.8-.23,2.69-.13,1.52-.2,2.28-.14,1.51-.22,2.27c-.13,1.37-.27,2.75-.42,4.12,0,.14,0,.27,0,.41-.14,1.35-.29,2.71-.46,4.06-.23,2-.49,4-.76,6-.22,1.7-.46,3.41-.71,5.11-.15,1-.31,2.09-.47,3.13-.18,1.25-.38,2.49-.59,3.73s-.36,2.22-.55,3.32q-.78,4.63-1.68,9.24c-.17.93-.36,1.85-.55,2.77s-.36,1.86-.56,2.78c-.11.54-.22,1.08-.34,1.62-.22,1.07-.45,2.13-.68,3.19l-.36,1.62c-.25,1.12-.5,2.23-.76,3.34-.13.57-.26,1.14-.4,1.71-.28,1.19-.56,2.37-.86,3.56-.07.34-.16.68-.25,1-.26,1.08-.53,2.16-.82,3.24q-.24,1-.51,2c-.3,1.14-.6,2.29-.92,3.43s-.66,2.48-1,3.71c-.24.89-.49,1.79-.75,2.68-.35,1.25-.72,2.5-1.09,3.75l-.21.72c-.39,1.28-.78,2.57-1.18,3.85q-1.85,6-3.91,12.05-1,3.12-2.17,6.22c-.28.8-.57,1.59-.86,2.39q-.69,1.9-1.41,3.81c0-.75.07-1.48.09-2.23A389.88,389.88,0,0,0,830.6,198.76a315.49,315.49,0,0,0-64.5-6.68,311.48,311.48,0,0,0-111.92,20.8q1.17-4,2.07-8.14a120.63,120.63,0,0,0-5.1-69A271.24,271.24,0,0,1,759.08,90.5,344.9,344.9,0,0,1,1161,366.94,437.89,437.89,0,0,1,1168,432.51Z"/><path class="cls-3" d="M1037.32,341.41a372.48,372.48,0,0,1,86.68,253,377.93,377.93,0,0,1-5.92,53.63h0l-7.55,33.48s0,0,0,.06a472.46,472.46,0,0,1-14.64,45.78q-4.35,11.52-9.28,22.75c-.59,1.34-1.18,2.68-1.79,4a466.63,466.63,0,0,1-29.3,55q-6.23,10-12.94,19.63-8.38,12.07-17.53,23.6a467.25,467.25,0,0,1-118.6,106.09q-5.77,3.63-11.69,7.1l-4.32,2.5c-4.23,2.43-8.57,4.82-13,7.16l-1.71.9q-2.68,1.42-5.4,2.8l-1.7.86c-1.3.66-2.6,1.3-3.9,1.94-13.13,6.49-26.61,12.38-40.29,17.61a477.27,477.27,0,0,0,68.1-121.16q6.87-17.86,12.36-36.41c3.82-12.92,7.14-26.11,9.87-39.2a389.94,389.94,0,0,0-119.21-367.6c-8.92-8.11-18.26-15.85-27.76-23-9.82-7.4-20.08-14.38-30.47-20.76a387.37,387.37,0,0,0-51.56-26.54c-.52-.58-1-1.17-1.59-1.75q-6-6.6-12.26-12.89l3-4.25.54-.51,3-2.8L680,341l1.56-1.44,1.58-1.46c9.07-8.32,19.82-17.12,31.2-26.44,34-27.85,66.16-54.16,67.84-77.62a24.59,24.59,0,0,0-3.84-15.23l-3-3.87c-.46-.5-1-1-1.45-1.47l-.84-.78c-.28-.26-.57-.51-.86-.76s-.48-.41-.73-.61l-.14-.12-.29-.23-.34-.26c-.26-.21-.52-.4-.78-.59h0l-.15-.12c-.42-.3-.84-.6-1.27-.89l1.79,0a298.72,298.72,0,0,1,56.84,6.29C910.31,232.74,983,276.32,1037.32,341.41Z"/><path class="cls-4" d="M1109.74,925.5q.15,19.88-1,39.79h0a.41.41,0,0,1,0,.11,635.09,635.09,0,0,1-28.44,155.9q-1.23,3.93-2.52,7.84-4.11,12.48-8.73,24.83C1029,1261,956.44,1349.14,859.26,1408.76l-1.67,1-.54.33-.32.19c-134.17,81.31-295.09,96.46-442,41.45a406.46,406.46,0,0,1-222.18-202.27q13.11,5.94,26.52,11a524.47,524.47,0,0,0,294.53,21.89q16.47-3.54,32.75-8.13,10.3-2.91,20.52-6.26,13.49-4.4,26.81-9.57,5-2,10-4,7.63-3.13,15.15-6.51,16.58-7.41,32.49-15.9A524.12,524.12,0,0,0,879.09,993.51q3.48-1.78,6.92-3.62c1.83-1,3.66-2,5.47-3,2.49-1.38,5-2.76,7.39-4.16a484.79,484.79,0,0,0,139.48-119.88q5.06-6.37,9.89-12.91,7-9.48,13.55-19.3a482.24,482.24,0,0,0,29.76-51.16q.53,2.12,1,4.23l.3,1.27s0,.06,0,.09c.29,1.24.58,2.47.86,3.7q1.18,5.21,2.29,10.41.48,2.24.93,4.47l.33,1.63c.25,1.25.5,2.51.74,3.76.06.28.11.57.17.85.2,1,.4,2.06.59,3.1,0,.25.09.5.14.75l.51,2.79q.67,3.61,1.29,7.24c.2,1.17.39,2.33.58,3.5s.39,2.39.58,3.58c.25,1.56.5,3.13.73,4.7.14.88.27,1.78.4,2.67,0,.16,0,.31.07.47.15,1,.29,2,.43,3,.06.4.12.8.17,1.2.21,1.49.41,3,.61,4.49q.42,3.15.81,6.32c.2,1.67.39,3.33.58,5s.36,3.2.53,4.8c0,.22,0,.45.07.67.17,1.62.33,3.23.5,4.85l.3,3.25c0,.49.09,1,.13,1.46.08.83.15,1.67.22,2.5l0,.36q.18,2,.33,4.05c.13,1.61.25,3.22.36,4.84l.09,1.2c.11,1.65.22,3.3.32,4.95s.21,3.55.31,5.32c.16,3.16.3,6.33.42,9.49,0,1.3.1,2.61.13,3.91,0,.16,0,.31,0,.47l.09,3.27c0,1.69.08,3.39.11,5.08,0,1.17,0,2.33,0,3.5C1109.73,923.65,1109.74,924.57,1109.74,925.5Z"/><path class="cls-2" d="M776.76,722.71c0,1.93,0,3.85,0,5.77,0,1.72,0,3.45-.06,5.16,0,.74,0,1.48,0,2.21,0,1.26,0,2.51-.09,3.76,0,.3,0,.59,0,.89,0,1.27-.07,2.54-.12,3.8,0,.89-.06,1.78-.1,2.66,0,1.21-.09,2.42-.16,3.63,0,.32,0,.63,0,.95,0,1-.09,2.07-.15,3.1q-.09,1.85-.21,3.66c-.09,1.59-.19,3.18-.3,4.76q-.51,7.52-1.22,14.89c-.11,1.27-.24,2.52-.38,3.78,0,.49-.09,1-.14,1.46-.15,1.47-.31,2.94-.49,4.4s-.36,3.19-.57,4.77c-.14,1.19-.29,2.37-.45,3.55q-.69,5.33-1.5,10.56c-.21,1.36-.42,2.71-.64,4.06q-2,12.4-4.62,24.31c-.25,1.13-.5,2.26-.76,3.39-.33,1.47-.68,2.94-1,4.4-.39,1.65-.79,3.3-1.22,4.94-.19.81-.39,1.62-.61,2.42a5.36,5.36,0,0,1-.14.54c-.32,1.25-.65,2.49-1,3.73s-.64,2.37-1,3.55-.65,2.35-1,3.52c-.07.25-.14.5-.22.75l-.66,2.19q-1.21,4.1-2.51,8.12s0,0,0,.06c-66.47-44.33-163.23-65.93-295-65.93s-228.54,21.6-295,65.93q-5.16-16-9.09-33c-.23-1-.47-2-.7-3-.27-1.19-.53-2.38-.78-3.58s-.46-2.13-.67-3.2-.45-2.14-.66-3.22c-.75-3.68-1.43-7.4-2.07-11.16-.51-2.89-1-5.81-1.43-8.74q-.81-5.24-1.5-10.56c-.16-1.18-.31-2.36-.45-3.55q-.32-2.37-.57-4.77c-.18-1.46-.34-2.93-.49-4.4-.05-.48-.11-1-.14-1.46-.14-1.26-.27-2.51-.38-3.78q-.72-7.37-1.22-14.89c-.11-1.58-.21-3.17-.3-4.76q-.12-1.81-.21-3.66c-.06-1-.11-2.06-.15-3.1,0-.32,0-.63,0-.95-.07-1.21-.12-2.42-.16-3.63,0-.88-.07-1.77-.1-2.66,0-1.26-.09-2.53-.12-3.8,0-.3,0-.59,0-.89,0-1.25-.07-2.5-.09-3.76,0-.73,0-1.47-.05-2.21,0-1.71,0-3.44-.06-5.16,0-1.92,0-3.84,0-5.77s0-3.84,0-5.76q0-1.38,0-2.76c0-1.41,0-2.82.07-4.23q.06-3.18.16-6.34t.22-6.31q.12-3,.27-6c0-.19,0-.37,0-.55.07-1.43.15-2.86.24-4.28q.09-1.79.21-3.57c0-.19,0-.37,0-.56.09-1.56.2-3.12.31-4.68.13-1.8.26-3.59.41-5.37a310.53,310.53,0,0,0,72.35,50.25l25.27,12.74-14.86-24.08a222.14,222.14,0,0,1-29.22-76.76,238.38,238.38,0,0,1-3.21-24.28,241.17,241.17,0,0,1,14-102.83c30.21,11.54,63.51,17.33,98.16,17.33a336.24,336.24,0,0,0,89-12.3c66.52-18.3,125.92-54.86,167.25-103a267,267,0,0,0,20.58-27.22l.37-.62a123.94,123.94,0,0,0,12.27-34.31c.22-1.08.42-2.17.6-3.23a130.69,130.69,0,0,0,1.92-21.73h0a150,150,0,0,1,4.36-25.06v0c.1-.22.2-.45.31-.67h0l.18-.4c0-.1.09-.21.14-.31.29-.62.58-1.24.88-1.86.51-1.05,1-2.09,1.58-3.14a136,136,0,0,1,28.53-36.57,126.72,126.72,0,0,1,13.47-10.71c38.73-26.88,92.67-36,112-19.5a22,22,0,0,1,2,1.89,8.72,8.72,0,0,1,2.54,7c-1.06,14.73-27.76,38.14-52.7,58.73-3.15,2.6-6.28,5.16-9.32,7.65-11.56,9.46-22.47,18.4-31.88,27q-1.89,1.74-3.71,3.43l-2.89,2.71c-1.06,1-2.1,2-3.11,2.93l-2.94,2.8,0,0-1.42,1.39-17.19,16.82-26.79,25.79s26,3,36.12-16.25l.43.46c.91,1,1.82,1.95,2.71,2.93.34.36.67.73,1,1.09,1,1.08,2,2.18,2.94,3.28.19.2.37.41.55.61,1.16,1.31,2.31,2.64,3.46,4l0,0q1.83,2.11,3.61,4.27,1.54,1.85,3.06,3.72c.4.49.8,1,1.19,1.48.61.75,1.22,1.51,1.81,2.27s1,1.3,1.55,2c1,1.31,2,2.62,3,3.95s2.23,2.95,3.32,4.44,2.27,3.07,3.38,4.63,2.23,3.13,3.33,4.71q3.3,4.72,6.49,9.58l.15.23q1.29,1.95,2.54,3.92c.39.59.77,1.19,1.13,1.78q1.23,1.92,2.42,3.85a.93.93,0,0,1,.11.19c1,1.65,2,3.31,3,5s2,3.39,3,5.11q2.77,4.74,5.44,9.59c.69,1.23,1.36,2.46,2,3.7.4.73.8,1.46,1.18,2.2.51.95,1,1.9,1.51,2.86q4,7.62,7.78,15.5c.66,1.36,1.3,2.72,1.94,4.09l.25.54c.44.95.89,1.9,1.32,2.86s.81,1.77,1.21,2.66c.66,1.44,1.3,2.89,1.94,4.35.44,1,.88,2,1.31,3,.57,1.31,1.14,2.63,1.69,4q2.24,5.26,4.36,10.63c.83,2.08,1.65,4.18,2.44,6.28.56,1.44,1.1,2.88,1.63,4.33.13.33.25.66.37,1,.53,1.43,1.06,2.86,1.57,4.3.15.41.3.82.44,1.24.45,1.24.89,2.49,1.33,3.75.25.71.5,1.42.74,2.14q.51,1.45,1,2.91c.3.87.59,1.74.88,2.61q1.68,5.07,3.28,10.22c.31,1,.61,2,.9,2.94.37,1.2.73,2.4,1.09,3.6a.09.09,0,0,1,0,0c.44,1.45.86,2.91,1.28,4.37.33,1.11.64,2.23,1,3.35.2.7.39,1.4.58,2.11.27.93.52,1.86.77,2.79s.59,2.15.87,3.23c.25.92.49,1.85.73,2.78q1.35,5.15,2.59,10.35c.27,1.11.54,2.23.79,3.35s.48,2,.71,3c.11.49.23,1,.33,1.47.35,1.51.68,3,1,4.54.13.6.26,1.2.38,1.8.26,1.14.5,2.29.73,3.44.18.87.36,1.73.53,2.6q1.7,8.29,3.15,16.71c.23,1.28.44,2.56.65,3.86.13.74.26,1.49.37,2.24.19,1.14.38,2.28.55,3.43s.34,2.16.5,3.25c.09.52.16,1,.24,1.56.29,2,.58,3.95.85,5.94s.57,4.16.84,6.25q.48,3.81.92,7.65.33,2.72.61,5.46s0,0,0,0c.18,1.67.36,3.35.51,5,.11,1.06.21,2.12.31,3.18s.19,2.07.28,3.11.16,1.84.23,2.76c.13,1.45.25,2.91.35,4.38,0,.51.09,1,.12,1.54.09,1.19.17,2.38.25,3.58.07,1,.13,1.91.19,2.87,0,.37,0,.74.07,1.11q.38,6,.62,11.94v0q.13,3,.22,6c0,.5,0,1,.05,1.51,0,1.53.09,3.06.13,4.59,0,.64,0,1.29,0,1.94,0,1.75.06,3.5.08,5.26Q776.76,718.91,776.76,722.71Zm-138.56-130A34.22,34.22,0,1,0,604,626.9,34.22,34.22,0,0,0,638.2,592.68Zm-287.44,0a34.22,34.22,0,1,0-34.22,34.22A34.22,34.22,0,0,0,350.76,592.68Z"/><path class="cls-3" d="M746.87,895.78l-.57,1.42c-.19.47-.38.95-.58,1.42s-.35.87-.54,1.3q-1.11,2.69-2.27,5.32c0,.13-.11.25-.16.37-.39.89-.78,1.77-1.19,2.65s-.75,1.7-1.15,2.54-.87,1.88-1.32,2.82-.78,1.67-1.19,2.5q-1.26,2.64-2.6,5.25c-.45.92-.92,1.83-1.4,2.74s-.84,1.62-1.27,2.43-1,1.8-1.45,2.7-.86,1.6-1.31,2.39-1,1.78-1.5,2.67-.88,1.57-1.34,2.35-1,1.75-1.54,2.62c-.22.39-.45.77-.69,1.16s-.45.77-.69,1.15-.52.87-.79,1.3q-.74,1.22-1.5,2.43c-.23.38-.47.75-.71,1.13-.54.86-1.08,1.71-1.64,2.56-.23.38-.47.74-.72,1.11s-.47.74-.72,1.1-.55.85-.84,1.27c-.76,1.15-1.53,2.29-2.31,3.43-.29.42-.57.83-.87,1.25s-.57.83-.87,1.24c-.58.83-1.16,1.66-1.76,2.48-.25.36-.51.71-.77,1.06-.5.7-1,1.4-1.52,2.09-.25.34-.5.69-.76,1q-1.68,2.25-3.39,4.45-1.34,1.71-2.7,3.41c-.61.78-1.24,1.55-1.87,2.31-.75.93-1.52,1.85-2.29,2.77l-.4.47q-.45.54-.93,1.08c-.76.91-1.54,1.81-2.32,2.71l-1.26,1.41c-.37.43-.75.85-1.14,1.27-.54.62-1.1,1.23-1.65,1.83-.81.88-1.62,1.76-2.45,2.63q-4.48,4.8-9.21,9.35c-1.19,1.16-2.4,2.3-3.61,3.43l-.1.1q-1.75,1.63-3.54,3.24l-.77.68q-1.69,1.53-3.42,3l-.55.48c-.94.81-1.88,1.6-2.83,2.39l-1.42,1.18c-.66.55-1.32,1.09-2,1.61s-1.35,1.1-2,1.63c-1.05.83-2.11,1.66-3.17,2.47-.73.57-1.46,1.13-2.19,1.66s-1.46,1.11-2.2,1.64l-1.6,1.18c-.95.69-1.9,1.37-2.86,2-.4.29-.79.57-1.19.84-1.5,1.06-3,2.09-4.55,3.11-.72.49-1.45,1-2.18,1.44s-1.61,1.06-2.42,1.57c-1.55,1-3.1,2-4.68,2.93-.75.47-1.5.92-2.26,1.37s-1.65,1-2.48,1.47-1.53.9-2.3,1.33-1.67,1-2.51,1.42-1.55.87-2.33,1.29-1.76,1-2.64,1.43l-2.27,1.19c-.85.45-1.7.89-2.56,1.32s-1.6.82-2.4,1.21-1.72.86-2.59,1.27-1.62.79-2.44,1.17-1.95.92-2.93,1.36c-.72.34-1.44.66-2.16,1s-1.54.7-2.32,1c-.94.42-1.88.83-2.83,1.22s-1.79.77-2.69,1.13-1.54.65-2.32,1c-1,.4-1.94.79-2.92,1.17l-1.81.7c-.73.29-1.46.57-2.2.84-1.06.41-2.13.8-3.2,1.18-.58.22-1.15.43-1.73.62s-1.15.42-1.73.62c-.87.31-1.74.61-2.62.9s-1.87.64-2.81.94-1.76.58-2.64.85c-1.47.48-2.94.94-4.42,1.38l-1.45.44-2.52.73c-.89.26-1.78.52-2.68.76s-1.82.51-2.74.75c-.65.18-1.31.36-2,.52l-.93.25-.82.2-2.13.54c-.91.24-1.82.46-2.73.67s-2,.48-3,.7l-2.66.61-.2,0-1.75.38c-1,.23-2.08.45-3.13.66a.86.86,0,0,1-.17,0l-.64.14-1.13.22c-.63.13-1.27.26-1.91.37-1.12.23-2.24.44-3.36.64-.84.16-1.69.31-2.53.45s-1.87.33-2.81.48l-2.31.38-3.64.56-1.59.23-3,.42-1.42.19c-1.84.25-3.7.47-5.56.69h-.06l-1.79.19q-6.3.71-12.7,1.19l-2.89.2c-.41,0-.83.06-1.24.09l-.29,0-2.36.14-.51,0-1.93.1c-1.11.06-2.23.12-3.35.16l-2.54.1-1.88.07-2.76.07H470l-3.22.07q-3.23,0-6.48,0t-6.48,0l-3.22-.07h-.3l-2.76-.07-1.88-.07-2.54-.1c-1.12,0-2.24-.1-3.35-.16l-1.93-.1-.51,0-2.36-.14-.29,0c-1.78-.11-3.55-.24-5.32-.39q-5.79-.45-11.5-1.09l-1.06-.11-.53-.06-.22,0H416c-1.86-.22-3.72-.44-5.56-.69l-1.42-.19-3-.42-1.59-.23-3.64-.56-2.31-.38q-.7-.1-1.41-.24l-3.93-.69c-1.12-.2-2.24-.41-3.36-.64-.64-.11-1.28-.24-1.91-.37l-1.13-.22-.64-.14a.86.86,0,0,1-.17,0c-1.05-.21-2.09-.43-3.13-.66l-1.75-.38-.2,0-2.66-.61c-1-.22-2-.45-3-.7s-1.82-.43-2.73-.67l-2.13-.54-.82-.2-.93-.25c-.65-.16-1.31-.34-2-.52-.92-.24-1.83-.49-2.74-.75s-1.79-.5-2.68-.76l-2.52-.73-1.45-.44c-1.48-.44-2.95-.9-4.42-1.38-.88-.27-1.76-.56-2.64-.85s-1.88-.62-2.81-.94-1.75-.59-2.62-.9c-1.8-.62-3.58-1.27-5.36-1.93s-3.55-1.33-5.31-2c-1-.38-1.95-.77-2.92-1.17-.78-.3-1.55-.62-2.32-1s-1.8-.74-2.69-1.13-1.89-.8-2.83-1.22c-1.6-.7-3.2-1.42-4.78-2.15s-3.38-1.57-5.06-2.39-3.35-1.64-5-2.49l-1.59-.81c-1.12-.57-2.24-1.16-3.34-1.76-.86-.45-1.71-.9-2.55-1.38s-1.55-.84-2.32-1.28-1.69-.94-2.53-1.43-1.53-.87-2.28-1.32-1.67-1-2.49-1.48-1.5-.89-2.24-1.35l-1.25-.77c-1.14-.7-2.26-1.41-3.38-2.13-.84-.53-1.68-1.08-2.51-1.63q-2.85-1.86-5.64-3.79l-1.05-.73c-1.15-.8-2.3-1.62-3.44-2.45l-1-.75c-1.14-.83-2.27-1.66-3.39-2.52l-1-.75c-1.45-1.1-2.9-2.22-4.33-3.36s-2.7-2.15-4-3.25c-.49-.4-1-.8-1.46-1.22s-.81-.67-1.21-1-1.06-.88-1.58-1.33c-.19-.17-.39-.33-.58-.51q-1.82-1.54-3.6-3.15l-.13-.12c-1.33-1.19-2.66-2.4-4-3.62l-.09-.09c-.95-.89-1.9-1.78-2.84-2.7l-.58-.55q-3.27-3.13-6.43-6.41c-.74-.76-1.47-1.52-2.19-2.29q-1.77-1.85-3.49-3.74l-.07-.07q-1.83-2-3.62-4.06l-.68-.78c-.76-.87-1.51-1.74-2.25-2.62s-1.49-1.76-2.22-2.65-1.54-1.86-2.29-2.8c-.36-.45-.72-.89-1.07-1.34-.72-.89-1.42-1.78-2.12-2.68a3,3,0,0,1-.22-.28q-1.48-1.9-2.93-3.86l-.49-.65c-.72-1-1.44-1.94-2.14-2.92-.31-.42-.62-.85-.92-1.28-1.1-1.52-2.18-3.07-3.24-4.62-.87-1.26-1.72-2.52-2.56-3.8-.44-.65-.88-1.31-1.3-2-1.21-1.86-2.41-3.73-3.56-5.62-.41-.64-.8-1.28-1.19-1.92-1.21-2-2.38-3.94-3.54-5.94-1-1.66-1.91-3.33-2.84-5s-1.86-3.38-2.75-5.09q-1.81-3.4-3.54-6.89c-.59-1.17-1.16-2.34-1.73-3.52q-1.29-2.64-2.51-5.32c-.43-.93-.86-1.87-1.28-2.81s-.83-1.86-1.23-2.79c-.73-1.65-1.44-3.32-2.14-5-.41-1-.81-2-1.21-2.94q-.31-.75-.6-1.5C236,851.88,330,830.52,460.26,830.52S684.48,851.88,746.87,895.78Zm-84,46.57a23.49,23.49,0,0,0,1.8-13.52,30.28,30.28,0,0,0-5.57-13.38,32,32,0,0,0-11.44-9.62,32.81,32.81,0,0,0-29.43,0,32.12,32.12,0,0,0-11.44,9.63,30.35,30.35,0,0,0-5.57,13.38,23.53,23.53,0,0,0,1.79,13.5c3.8-8,8.51-13.24,13.74-16.64a29.06,29.06,0,0,1,32.36,0C654.31,929.12,659,934.33,662.85,942.35ZM317.53,937a23.48,23.48,0,0,0,1.79-13.49,30.35,30.35,0,0,0-5.57-13.38,32.12,32.12,0,0,0-11.44-9.63,32.72,32.72,0,0,0-29.43,0,32,32,0,0,0-11.44,9.62,30.28,30.28,0,0,0-5.57,13.38,23.45,23.45,0,0,0,1.8,13.51c3.83-8,8.54-13.22,13.76-16.61a29.06,29.06,0,0,1,32.36,0C309,923.78,313.73,929,317.53,937Z"/><path class="cls-1" d="M664.65,928.83a23.49,23.49,0,0,1-1.8,13.52c-3.83-8-8.54-13.23-13.76-16.62a29.06,29.06,0,0,0-32.36,0c-5.23,3.4-9.94,8.62-13.74,16.64a23.53,23.53,0,0,1-1.79-13.5,30.35,30.35,0,0,1,5.57-13.38,32.12,32.12,0,0,1,11.44-9.63,32.81,32.81,0,0,1,29.43,0,32,32,0,0,1,11.44,9.62A30.28,30.28,0,0,1,664.65,928.83Z"/><path class="cls-3" d="M637.77,145.84A104.85,104.85,0,0,1,614.52,251a106.37,106.37,0,0,1-18.23,15.38q-3.19,2.14-6.57,4l-8.4-17.78a111.69,111.69,0,0,0-14.19-17.73q1.5-4.32,2.65-8.76,1.43-5.46,2.35-11.08a120.79,120.79,0,0,0-18.08-85.85c-.24-.38-.49-.76-.74-1.14a149.49,149.49,0,0,0-81.1-60.06,132.39,132.39,0,0,1,41.5-6.64A135.51,135.51,0,0,1,596.1,89.22a131.46,131.46,0,0,1,29.21,31.21c.76,1.15,1.52,2.34,2.26,3.56A106,106,0,0,1,637.77,145.84Z"/><circle class="cls-1" cx="603.98" cy="592.68" r="34.22"/><path class="cls-3" d="M583.83,311.64c.29,3.31.43,6.63.43,9.9a116.4,116.4,0,0,1-1.7,19.79c-.16.93-.33,1.86-.51,2.78a108.05,108.05,0,0,1-10.52,29.57A250.37,250.37,0,0,1,552.38,399C469.1,495.86,318.14,535.64,208.7,489.52c-4-1.7-8-3.51-11.91-5.44q10.89-1.14,21.69-3.2l3.73-.73a289.49,289.49,0,0,0,111.1-49.39l.48-.34.47-.35.95-.69a285,285,0,0,0,42.08-37.91c10.65-11.76,18.47-26.61,25.33-48.15,3.08-9.67,5.71-19.87,8.26-29.73.94-3.64,1.88-7.31,2.86-11l.19-.72c.36-1.34.73-2.72,1.12-4.14,1.55-5.65,3.34-11.85,5.43-18.08.4-1.18.8-2.35,1.22-3.53A102.35,102.35,0,0,1,431,259.5c1.3-1.88,2.66-3.72,4.08-5.5l.49-.61.12-.14.47-.57c11.52-14,26.12-23.65,42.23-28.06a75,75,0,0,1,45.92,2h0l.36.14A78.78,78.78,0,0,1,539,233.8c1.55,1,3.09,2,4.59,3.09l.28.21c.91.66,1.82,1.34,2.71,2.05l1.32,1.06c.53.43,1,.87,1.57,1.32l0,0,1,.87c1,.89,2,1.84,3.08,2.86.45.44.91.88,1.37,1.35q2.51,2.55,4.82,5.28a99.41,99.41,0,0,1,11.88,17.64c.36.67.7,1.35,1,2l.29.58.93,1.94c0,.08.07.15.1.22.34.73.68,1.47,1,2.21l0,.11c.37.85.74,1.71,1.09,2.58.14.33.27.67.4,1h0s0,.06,0,.1c.21.53.42,1.06.61,1.59.4,1.06.79,2.13,1.15,3.21.21.62.41,1.24.61,1.86s.41,1.31.61,2c.13.44.25.87.37,1.31s.27.91.38,1.36c0,0,0,0,0,.06.3,1.1.58,2.21.85,3.33s.55,2.39.77,3.5c0,.19.08.38.11.56s.07.36.11.55l.06.34.11.56c.62,3.25,1.09,6.63,1.42,10.07,0,.35.06.68.08,1Z"/><path class="cls-4" d="M540.6,137.79a104.85,104.85,0,0,1,15.78,75.63,55.31,55.31,0,0,0-5.08,9.14l-13-7.4h0l-1.61-.91a10.69,10.69,0,0,1-3.2-2.39,11.73,11.73,0,0,1-1.66-3.43c-9.08-25.24-30.24-45.43-55.23-55.19a109.89,109.89,0,0,0-36.19-7.29,124,124,0,0,0-36.81,4.4c-1.92.52-3.8,1.14-5.69,1.7.34-1,1.64-2.28,2.37-3.19.86-1.08,1.75-2.14,2.66-3.18l.38-.43q2.55-2.9,5.31-5.58a102.85,102.85,0,0,1,42.49-24.88l1.43-.4a102.43,102.43,0,0,1,66.47,4.3,49.71,49.71,0,0,1,12.9,7.47c.23.19.45.39.67.59q4,4.86,7.48,10.13c.15.23.31.46.46.7Z"/><path class="cls-3" d="M513,205.4c.34.63.66,1.27,1,1.91q-1.85-.33-3.69-.57c-.67-.09-1.33-.17-2-.24-2-.23-4-.38-6.05-.47-.54,0-1.09,0-1.63-.05s-1.1,0-1.64,0h-2.12c-.46,0-.91,0-1.37,0s-1,0-1.49.06h-.13l-1.25.07c-.24,0-.48,0-.71.05-.81,0-1.61.12-2.41.2l-1.2.12c-1.73.18-3.46.42-5.18.71-3,.51-6,1.16-9,2-1.11.3-2.2.63-3.3,1l-1.5.49c-.59.19-1.17.39-1.75.6s-1,.36-1.52.56c-.94.34-1.87.71-2.8,1.09l-1.51.64c-1,.44-2,.9-3,1.38l-.64.31c-1,.5-2.05,1-3.06,1.55l-1.71.92c-1.1.62-2.18,1.25-3.26,1.91-.54.32-1.08.66-1.61,1s-1,.65-1.54,1c-1.08.71-2.15,1.44-3.2,2.21-.52.37-1,.74-1.55,1.13q-3.1,2.31-6.08,4.91l-1.37,1.22-1.44,1.33-1.41,1.35c-.47.45-.93.91-1.39,1.38l-1.19,1.21c-.52.54-1,1.09-1.54,1.65-.14.14-.27.29-.4.43h0l-.69-.21-.11,0c-1.94-.56-3.88-1.12-5.8-1.64l-1.66-.44-2.65-.7c-5.05-1.3-10.09-2.47-14.91-3.47l-2.61-.53c-4.75-1-9.52-1.8-14.22-2.52l-2.34-.35-.73-.11-2.56-.36H379l-2.37-.31c-.88-.12-1.77-.23-2.65-.33-4-.47-8-.88-12-1.21h-.13l-2.57-.2-3.4-.23c-1.62-.1-3.24-.19-4.83-.26l-54.58-61.63c26-12.42,55.08-18.24,85.39-17.08l-.65,1a3.5,3.5,0,0,0-.23.35c-.33.5-.65,1-1,1.5-.41.65-.82,1.31-1.21,2s-.92,1.55-1.38,2.33l-.21.39c-.42.74-.84,1.49-1.24,2.24s-.89,1.68-1.32,2.53c-.31.61-.62,1.23-.91,1.84-.2.39-.39.79-.57,1.19s-.45,1-.66,1.43c-.51,1.11-1,2.22-1.47,3.35l-9.54,22.82,21.09-12.91A101.38,101.38,0,0,1,455,163.68l1.32.27a100.68,100.68,0,0,1,10.6,2.79l.1,0,.28.09.4.14a78.89,78.89,0,0,1,41.75,32.25l.36.56c.26.42.53.83.78,1.26s.42.69.62,1C511.83,203.19,512.44,204.28,513,205.4Z"/><path class="cls-4" d="M416.74,252l-.08.12q-1.37,2.06-2.64,4.17l-.09.14h0c-.39.64-.77,1.28-1.14,1.93l-.11.19c-.32.56-.64,1.12-.95,1.69l-.48.88c-.33.61-.65,1.22-1,1.83-.48.92-.94,1.85-1.39,2.78-.22.44-.43.89-.64,1.34-.45.95-.89,1.91-1.31,2.87l-.22.53q-1.17,3.32-2.23,6.59c-.33,1-.66,2-1,3,0,.11-.07.22-.1.33-.27.86-.54,1.72-.79,2.57-.05.18-.11.35-.16.53l-17.61-19.88-18.64-21h0l2.37.24,3.47.4c.82.09,1.65.2,2.52.31l2.23.29.15,0,2.37.34.28,0,.42,0,2.28.35c4.42.68,8.95,1.48,13.53,2.4.77.14,1.54.3,2.38.48,4.64,1,9.42,2.08,14.3,3.34.79.19,1.6.41,2.48.65l1.51.4Z"/><path class="cls-5" d="M385.65,288.72,397.37,302c-.67,2.55-1.32,5.1-2,7.64-2.61,10.09-5.07,19.63-8,28.87-6.14,19.25-12.91,32.29-21.95,42.27-.64.71-1.29,1.42-1.95,2.12-.48.53-1,1-1.46,1.56-.82.88-1.66,1.76-2.51,2.63-.66.69-1.34,1.38-2,2.07s-1.36,1.37-2.06,2.05q-6.21,6.13-12.9,11.91c-.73.64-1.46,1.27-2.2,1.89l-.07.05c-.74.64-1.48,1.26-2.23,1.87s-1.52,1.26-2.29,1.88l-2.56,2.05c-.69.55-1.39,1.09-2.09,1.63l-14.43-31.7-18.75-41.2-6.44-14.13-3.88-8.53-12.76-28v0l-15.24-33.5-1.38-3-2.08-4.59h0l-4.57-10.05-20.26-44.51L157.57,31.2,271.05,159.33l58.49,66,14.17,16,24.81,28Z"/><circle class="cls-1" cx="316.54" cy="592.68" r="34.22"/><path class="cls-1" d="M319.32,923.52A23.48,23.48,0,0,1,317.53,937c-3.8-8-8.51-13.23-13.74-16.63a29.06,29.06,0,0,0-32.36,0c-5.22,3.39-9.93,8.6-13.76,16.61a23.45,23.45,0,0,1-1.8-13.51,30.28,30.28,0,0,1,5.57-13.38,32,32,0,0,1,11.44-9.62,32.72,32.72,0,0,1,29.43,0,32.12,32.12,0,0,1,11.44,9.63A30.35,30.35,0,0,1,319.32,923.52Z"/><path class="cls-4" d="M287.46,355.22l8.94,19.63c-35.24,23.9-64.32,55.18-84.57,91q-2.66.46-5.31.87l-2.66.39c-1.06.15-2.12.3-3.19.43l-2.49.31c-1,.12-1.91.22-2.86.33-2.1.22-4.19.41-6.29.59l-2.44.18-2.89.19c-1,.06-1.93.11-2.89.15s-1.92.09-2.89.12c-.8,0-1.6.06-2.4.07-.31,0-.63,0-1,0l-1.54,0-3.76,0H142.52l22.35,14.69,1.26.82c.79.51,1.58,1,2.38,1.52l3.08,1.91.74.45c1.2.72,2.4,1.43,3.62,2.13s2.4,1.38,3.61,2.05l.38.21,3.22,1.75.42.22c1.16.61,2.33,1.22,3.5,1.81l.1.05.72.37c1,.51,2,1,3.06,1.51q2.19,1.06,4.39,2.08a257.09,257.09,0,0,0-15.19,110.3,253.08,253.08,0,0,0,3.41,25.91A242.93,242.93,0,0,0,201.74,695a287.58,287.58,0,0,1-54-43.18,265.05,265.05,0,0,1-21.08-24.25q-5.17-6.74-9.87-13.75a240.16,240.16,0,0,1-22.45-41.9c-35.93-87.12-10.28-191.07,63.71-261.25,2-1.93,4.08-3.82,6.18-5.69,1.92-1.72,3.87-3.41,5.85-5.05a251.55,251.55,0,0,1,21.81-16.41q2.41-1.62,4.86-3.18c1.18-.75,2.36-1.49,3.55-2.22l1.37-.83a241.75,241.75,0,0,1,37.66-18.54l1.22-.47q2.82,2.83,5.43,5.78l28.94,63.59.73,1.59,9.74,21.42Z"/><path class="cls-2" d="M227.06,246.48l-1.25.52c-2,.85-4,1.74-6,2.65q-2.1,1-4.19,2c-1,.46-1.95.94-2.92,1.42l-16.46,8.9c-.95.55-1.9,1.12-2.85,1.69s-1.7,1-2.54,1.56-1.8,1.12-2.69,1.69q-2.32,1.49-4.62,3l-1.85,1.24c-1,.67-2,1.35-2.95,2-.79.55-1.59,1.11-2.38,1.68S174.8,276,174,276.55l-2.34,1.73c-1.35,1-2.69,2-4,3.05-.73.57-1.46,1.14-2.18,1.72s-1.62,1.29-2.42,1.95-1.61,1.31-2.4,2c-.6.5-1.2,1-1.79,1.51-.3.26-.61.51-.91.78-5-4.44-10.05-9-14.88-13.55-4.37-4.12-8.57-8.23-12.43-12.26-11.87-12.39-20.49-24-20.81-32.43v-.15a8.7,8.7,0,0,1,2.77-6.74c9.58-9.75,30.48-11.84,55.91-5.58l.1,0a163.9,163.9,0,0,1,36.29,13.87,159.1,159.1,0,0,1,13.8,8.12Q223,243.4,227.06,246.48Z"/><path class="cls-3" d="M127,282.57c5.92,5.74,12.33,11.58,19,17.5-35.19,33.85-61.44,77.27-74.39,123.31C56.82,476.07,59.56,529.55,79.55,578q1.1,2.67,2.27,5.32c.39.89.79,1.77,1.19,2.65s.81,1.77,1.22,2.65.83,1.75,1.25,2.63.85,1.75,1.29,2.62.87,1.75,1.32,2.62.89,1.73,1.35,2.6h0A135,135,0,0,1,73.74,588c-48.91-40.14-61.41-107.19-56.8-156.55,3.62-38.8,22-77.7,50.3-106.72A205.72,205.72,0,0,1,127,282.57Z"/></g></g></svg>
